<svg xmlns="http://www.w3.org/2000/svg" xml:space="preserve" style="fill-rule:evenodd;clip-rule:evenodd;stroke-linejoin:round;stroke-miterlimit:2" viewBox="0 0 29 40"><path d="M5.707.012C7.46-.01 9.213.005 10.967.004c.003.549.012 1.097-.008 1.646-1.215-.009-2.429 0-3.642.007-.009.796-.025 1.593-.017 2.39 1.219.007 2.438.018 3.657.013.014.451.01.904-.004 1.355-1.748-.012-3.496-.006-5.244-.005.004-1.8.007-3.598-.002-5.398zM11.591.006c1.775-.003 3.55-.014 5.325.006-.006.518-.001 1.036-.001 1.554-1.292-.004-2.584.002-3.875.017v.61c1.29.022 2.578.024 3.867.032.005 1.062.003 2.124.01 3.186a809.029 809.029 0 0 0-5.327.007c-.01-.43-.01-.858.002-1.287 1.23.004 2.462.005 3.692-.005.008-.276.011-.553.01-.83-1.236 0-2.473.005-3.71-.004 0-1.095 0-2.19.007-3.286zM17.51.015h5.316c.007.521.015 1.042-.002 1.562-1.297 0-2.595.007-3.892.01.004.212.009.425.02.638 1.29-.006 2.579.01 3.868.023.011 1.058.02 2.115.005 3.173a707.9 707.9 0 0 0-5.327.003c-.01-.427-.014-.856.004-1.283 1.228.009 2.457.007 3.686-.005.003-.277.009-.554.006-.83-1.232.011-2.466.005-3.7 0 0-1.096.008-2.194.017-3.29z" style="fill-rule:nonzero;stroke-width:.0834757;fill:currentColor"/><path d="M0 7.65v.157c.183 1.571.293 3.151.445 4.726.441 5.234.939 10.464 1.397 15.697.243 2.833.489 5.664.762 8.495 2.094.561 4.17 1.191 6.263 1.755 1.774.528 3.566.992 5.34 1.52h.055c1.864-.543 3.742-1.037 5.605-1.584 2.029-.54 4.037-1.154 6.067-1.691.352-3.777.685-7.555 1.01-11.334.544-5.913 1.06-11.826 1.583-17.74C19.017 7.648 9.51 7.65 0 7.65zm14.29 5.74c3.133.017 6.265-.003 9.398.022-.046.936-.165 1.866-.233 2.8-.03.296-.027.596-.105.884-.2.155-.441.241-.668.345-1.177.522-2.365 1.021-3.537 1.553-1.223.547-2.474 1.032-3.665 1.645.321.023.643.025.965.023 2.212-.01 4.425-.002 6.637-.014-.231 3.698-.597 7.385-.926 11.075-2.6.677-5.19 1.398-7.797 2.052l-.101.022c-.183.015-.36-.05-.535-.088-1.481-.396-2.979-.73-4.457-1.133-.965-.263-1.934-.51-2.9-.762a54.69 54.69 0 0 1-.542-5.498c.981-.015 1.962-.006 2.942-.011.202.003.408-.002.603.058.085.957.152 1.916.248 2.871.676.197 1.377.275 2.063.424.869.155 1.73.347 2.603.477.015-.498.022-.996.024-1.494.002-.498-.002-.996-.004-1.495.002.499.006.996.004 1.495-.002.498-.009.996-.024 1.494.474-.223.986-.342 1.485-.494.935-.28 1.875-.537 2.802-.84.08-1.547.209-3.092.293-4.639-1.513.01-3.026-.03-4.539-.004-1.296.029-2.594.003-3.89.01-1.618.002-3.234.027-4.852.033-.086-1.209-.282-2.414-.305-3.625.205-.148.45-.224.678-.326 2.667-1.166 5.356-2.29 8.012-3.48-3.035-.091-6.074.026-9.11-.086-.152-1.094-.3-2.189-.355-3.291 3.262-.004 6.525-.014 9.787-.002z" style="fill:currentColor;fill-rule:nonzero;stroke-width:.0834757"/></svg>