<svg xmlns="http://www.w3.org/2000/svg" xml:space="preserve" style="enable-background:new 0 0 48 48" viewBox="0 0 48 48"><path fill="currentColor" d="M42.9 0H5.1C2.3 0 0 2.3 0 5.1v37.7C0 45.7 2.3 48 5.1 48h37.7c2.8 0 5.1-2.3 5.1-5.1V5.1c.1-2.8-2.2-5.1-5-5.1zM29.7 41.1c-.9.2-1.2-.4-1.2-.9v-5.9c0-1.7-.6-2.7-1.2-3.3 4-.4 8.1-1 8.1-7.8 0-2-.7-2.9-1.8-4.2.2-.5.8-2.4-.2-4.8-1.5-.5-4.9 1.9-4.9 1.9-1.4-.4-2.9-.6-4.5-.6s-3 .2-4.5.6c0 0-3.4-2.4-4.9-1.9-1 2.5-.4 4.4-.2 4.8-1.1 1.3-1.7 2.2-1.7 4.2 0 6.8 4 7.4 8 7.8-.5.5-1 1.3-1.1 2.4-1 .5-3.6 1.3-5.2-1.5-1-1.7-2.7-1.8-2.7-1.8-1.7 0-.1 1.1-.1 1.1 1.2.5 2 2.6 2 2.6 1 3.2 6 2.1 6 2.1v4.3c0 .5-.3 1-1.2.9-7.1-2.4-12-9.1-12-17 0-9.8 7.5-17.3 17.4-17.3s17.8 7.5 17.8 17.3c0 7.9-4.8 14.7-11.9 17zm-10.5-6.5c-.2 0-.4 0-.4-.2s.1-.3.3-.3c.2 0 .4.1.4.2.1.1-.1.2-.3.3zm-1-.1c0 .1-.2.3-.4.3s-.4-.1-.4-.3c0-.1.2-.3.4-.3s.4.1.4.3zm-1.5-.1c0 .1-.3.2-.4.1-.2 0-.3-.2-.3-.3 0-.1.3-.2.4-.2.2 0 .4.2.3.4zm-1.3-.6c-.1.1-.3.1-.5-.1-.2-.1-.2-.3-.1-.4.1-.1.3-.1.5.1.1.1.2.3.1.4zm-1-1c-.1.1-.3 0-.4-.2s-.1-.3 0-.4c.1-.1.3 0 .4.1.1.2.1.4 0 .5zm-.7-1c-.1.1-.3 0-.4-.1-.1-.1-.1-.3 0-.4.1-.1.3 0 .4.1.1.1.1.3 0 .4zM13 31c0 .1-.2.1-.3 0-.1-.1-.2-.2-.2-.3 0-.1.2-.1.3 0 .2.1.2.2.2.3z"/></svg>