<svg xmlns="http://www.w3.org/2000/svg" xml:space="preserve" style="fill-rule:evenodd;clip-rule:evenodd;stroke-linejoin:round;stroke-miterlimit:2" viewBox="0 0 30 40"><g style="fill:currentColor"><path d="M108.4 0h23v22.8h21.2V0h23v69h-23V46h-21v23h-23.2M206 23h-20.3V0h63.7v23H229v46h-23m53.5-69h24.1l14.8 24.3L313.2 0h24.1v69h-23V34.8l-16.1 24.8-16.1-24.8V69h-22.6m89.2-69h23v46.2h32.6V69h-55.6" style="fill-rule:nonzero;fill:currentColor" transform="matrix(.07813 0 0 .07813 -5 0)"/></g><path d="m.828 7.86 2.578 28.937L14.976 40l11.618-3.219L29.172 7.86H.828zm5.266 5.913h17.781l-.328 3.547H9.984l.329 3.633H23.227l-.977 10.89L15 33.856v.02l-7.281-2.031-.5-5.57h3.562l.25 2.835 3.961 1.06 3.953-1.06.414-4.609h-4.375v-.008H7.063l-.97-10.719z" style="fill:currentColor;fill-rule:nonzero;stroke-width:.078125"/></svg>