<svg xmlns="http://www.w3.org/2000/svg" xml:space="preserve" style="fill-rule:evenodd;clip-rule:evenodd;stroke-linejoin:round;stroke-miterlimit:2" viewBox="0 0 50 50"><path d="M.549.195v48.887h48.887V.195H.549zm37.209 22.186c2.92 0 5.02 1.016 6.533 3.678l-3.576 2.296c-.788-1.412-1.638-1.968-2.957-1.968-1.346 0-2.2.853-2.2 1.968 0 1.379.854 1.936 2.825 2.79l1.148.492c3.903 1.674 6.108 3.38 6.108 7.217 0 4.135-3.248 6.402-7.612 6.402-4.266 0-7.022-2.035-8.37-4.7l3.732-2.167c.984 1.607 2.265 2.789 4.53 2.789 1.904 0 3.12-.951 3.12-2.266 0-1.575-1.249-2.132-3.344-3.049l-1.148-.494c-3.315-1.412-5.518-3.182-5.518-6.922 0-3.445 2.626-6.066 6.729-6.066zm-15.18.262h4.594v15.681c0 4.757-2.789 6.922-6.86 6.922-3.678 0-5.807-1.903-6.89-4.195l3.738-2.264c.722 1.28 1.379 2.361 2.957 2.361 1.51 0 2.461-.59 2.461-2.886v-15.62z" style="fill:currentColor"/></svg>