<svg xmlns="http://www.w3.org/2000/svg" xml:space="preserve" style="enable-background:new 0 0 30.5 24" viewBox="0 0 30.5 24"><path fill="currentColor" d="M30.5 7.7v13.5c0 .8-.3 1.4-.8 1.9s-1.2.8-1.9.8H2.7c-.8 0-1.4-.3-1.9-.8-.5-.4-.8-1.1-.8-1.8V7.7c.5.6 1.1 1.1 1.7 1.5 4.1 2.8 6.9 4.8 8.5 5.9.6.5 1.2.8 1.6 1.1.4.3.9.5 1.6.8s1.3.4 1.9.4c.6 0 1.2-.1 1.9-.4.7-.3 1.2-.6 1.6-.8.4-.3.9-.6 1.6-1.1 1.9-1.4 4.8-3.4 8.5-5.9.6-.4 1.2-.9 1.6-1.5zm0-5c0 .9-.3 1.8-.8 2.6-.6.8-1.3 1.5-2.1 2.1-4.3 3-6.9 4.8-8 5.5-.1.1-.4.3-.7.5-.4.3-.7.5-.9.6-.2.2-.5.3-.9.6-.3.2-.7.4-1 .5-.3.1-.6.2-.9.2-.3 0-.5-.1-.9-.2s-.6-.3-1-.5l-.9-.6c-.2-.2-.6-.4-.9-.6-.4-.3-.6-.4-.7-.5-1-.7-2.5-1.8-4.5-3.1s-3-2.1-3.4-2.4c-.7-.5-1.4-1.1-2-2S0 3.8 0 3.1C0 2.2.2 1.5.7.9s1.2-.9 2-.9h25.1a2.732 2.732 0 0 1 2.7 2.7z"/></svg>