<svg xmlns="http://www.w3.org/2000/svg" xml:space="preserve" style="clip-rule:evenodd;fill-rule:evenodd;stroke-linejoin:round;stroke-miterlimit:2" viewBox="0 0 37.202 37.69"><g style="fill:currentColor"><path d="M-129.969 340.071c-1.501.443-2.697.595-4.262.595-12.84 0-31.7-44.87-31.7-59.804 0-5.501 1.306-7.335 3.142-8.906-15.717 1.833-34.58 7.598-40.607 14.933-1.309 1.835-2.095 4.716-2.095 8.382 0 23.318 24.887 76.234 42.441 76.234 8.12 0 21.816-13.36 33.081-31.434" style="fill:currentColor;fill-rule:nonzero" transform="matrix(.37272 0 0 .37272 76.59 -100.776)"/></g><g style="fill:currentColor"><path d="M-138.165 270.383c16.243 0 32.488 2.62 32.488 11.789 0 18.601-11.789 41.131-17.815 41.131-10.74 0-24.101-29.864-24.101-44.798 0-6.811 2.62-8.122 9.428-8.122" style="fill:currentColor;fill-rule:nonzero" transform="matrix(.37272 0 0 .37272 76.59 -100.776)"/></g></svg>