<svg xmlns="http://www.w3.org/2000/svg" viewBox="0 0 40 39.604"><path d="M-357.069 86.243c-.177-.176-.206-.378-.084-.572.064-.1.383-.13 1.737-.164l1.66-.04.196-.573c.286-.834.331-2.202.105-3.15-.092-.382-.192-.76-.222-.838-.052-.135.119-.143 2.907-.143 2.787 0 2.959.008 2.906.143-.03.079-.13.456-.221.838-.227.948-.182 2.316.104 3.15l.196.572 1.66.041c1.355.034 1.674.064 1.737.164.123.194.093.396-.084.572-.16.161-.272.164-6.298.164s-6.138-.003-6.299-.164zm-11.865-6.573c-.729-.197-1.33-.716-1.664-1.439l-.172-.372V55.691l.212-.45c.3-.639.58-.936 1.154-1.222l.5-.25h6.598l-.297.465c-.71 1.108-1.514 3.069-1.748 4.258l-.098.495-.592.03c-.488.025-.641.068-.879.25-.489.372-.556.619-.556 2.048 0 1.18.013 1.283.186 1.54.102.152.31.36.462.462.259.175.358.186 1.602.186 1.243 0 1.342-.011 1.601-.186.152-.102.36-.31.462-.462.174-.257.186-.36.186-1.54 0-1.42-.068-1.676-.54-2.037a1.525 1.525 0 0 0-.609-.252c-.336-.045-.337-.046-.286-.34.198-1.14 1.01-2.998 1.879-4.3 1.779-2.669 4.675-4.699 7.704-5.401.703-.163.768-.158.77.06.003.326.3.851.617 1.093.304.233.326.237 1.542.261 1.154.024 1.258.013 1.601-.163.426-.219.718-.613.791-1.07l.051-.32.377.054c1.193.171 3.479 1.175 4.813 2.114 1.093.77 2.487 2.205 3.235 3.33.895 1.348 1.703 3.191 1.903 4.342.051.294.05.295-.286.34-.185.025-.46.138-.609.252-.472.36-.54.617-.54 2.037 0 1.18.013 1.283.186 1.54.102.152.31.36.462.462.259.175.358.186 1.602.186 1.243 0 1.342-.011 1.601-.186.152-.102.36-.31.462-.462.174-.257.186-.36.186-1.54 0-1.43-.067-1.676-.556-2.049-.237-.18-.39-.224-.88-.249l-.59-.03-.098-.495c-.234-1.19-1.04-3.15-1.748-4.258l-.298-.465h6.598l.5.25c.573.286.854.583 1.155 1.222l.212.45v11.002c0 8.693-.022 11.075-.105 11.347-.228.752-1.035 1.484-1.82 1.652-.632.136-35.734.114-36.239-.022zm5.606-3.83c.27-.123.345-.417.172-.681l-.133-.204h-2.192c-2.316 0-2.394.012-2.505.387-.04.134.001.239.152.389l.206.206h2.044c1.389 0 2.113-.031 2.256-.096zm9.643-.073.215-.17v-6.286h5.397l.022 3.16.02 3.162.226.168.225.168.225-.168.225-.168.021-3.185.022-3.185.346-.095c.767-.209 1.371-1.046 1.368-1.898-.004-1.034-.736-1.88-1.743-2.019l-.355-.049.062-.379c.15-.92.363-1.28 1.388-2.35.82-.855.908-1.069.663-1.604-.362-.791-4.997-8.54-5.198-8.69-.212-.158-.216-.158-.427 0-.197.147-4.833 7.897-5.199 8.69-.251.545-.165.738.762 1.703.832.866 1.142 1.371 1.256 2.045.03.175.07.377.09.45.028.102-.048.143-.336.182a2.03 2.03 0 0 0-1.758 2.021c-.001.853.602 1.69 1.369 1.898l.348.095v6.335l.215.17c.119.092.243.169.275.169.033 0 .157-.077.276-.17zm-.987-7.596c-.528-.325-.695-.944-.393-1.456.31-.523.22-.512 4.295-.512 3.275 0 3.722.015 3.923.133.585.346.687 1.13.214 1.647l-.28.305-3.749.022c-3.603.02-3.759.015-4.01-.14zm1.53-3.178c0-.376-.233-1.169-.508-1.734-.183-.377-.468-.742-.982-1.258-.674-.679-.716-.74-.613-.901.06-.096.951-1.61 1.979-3.364 1.027-1.754 1.899-3.225 1.936-3.268.038-.042.069.733.069 1.723v1.8l-.333.147c-1.282.566-1.594 2.271-.597 3.268a1.99 1.99 0 0 0 2.39.34c.634-.349 1.074-1.072 1.075-1.766.002-.729-.534-1.54-1.216-1.84l-.338-.149v-1.8c0-1.001.031-1.766.07-1.723.039.043.89 1.477 1.891 3.186 1.002 1.71 1.89 3.224 1.976 3.365l.155.256-.722.727c-.513.515-.798.88-.981 1.257-.275.565-.507 1.358-.507 1.734v.228h-4.745zm1.823-4.104c-.693-.423-.665-1.47.05-1.84.95-.49 1.956.576 1.402 1.485-.305.5-.953.659-1.452.355zm17.613 14.842c.15-.15.19-.255.151-.389-.111-.375-.188-.387-2.505-.387h-2.191l-.134.204c-.167.255-.1.557.149.677.118.057.935.092 2.255.095l2.069.006.206-.206zm-25.49-2.248c.09-.09.164-.238.164-.328 0-.09-.074-.237-.164-.327-.159-.159-.272-.163-4.259-.163-2.635 0-4.15.03-4.251.083a.477.477 0 0 0-.046.836c.05.033 1.958.06 4.241.061 4.043.001 4.156-.003 4.315-.162zm25.407.1a.477.477 0 0 0-.045-.835c-.1-.053-1.617-.083-4.252-.083-3.986 0-4.1.004-4.259.163-.09.09-.164.238-.164.327 0 .09.074.238.164.328.16.159.272.163 4.315.162 2.283 0 4.192-.028 4.241-.061zm-25.333-2.484c.109-.193.107-.237-.02-.429l-.14-.214H-367.78l-.126.193c-.124.189-.103.39.064.605.062.081.992.099 4.34.082l4.26-.021zm25.515-.013c.094-.198.091-.257-.022-.43l-.132-.201-4.268.02-4.269.022-.12.216c-.11.193-.107.237.019.43l.14.214 4.271-.02 4.27-.022zm-31.77-8.599c-.138-.101-.162-.238-.186-1.108-.039-1.426-.07-1.393 1.337-1.393 1.406 0 1.375-.033 1.336 1.393-.024.87-.047 1.007-.186 1.108-.226.165-2.075.165-2.3 0zm26.913 0c-.14-.101-.162-.238-.186-1.108-.04-1.426-.071-1.393 1.336-1.393 1.406 0 1.375-.033 1.336 1.393-.024.87-.047 1.007-.186 1.108-.226.165-2.075.165-2.3 0zm-28.64-12.972c-.132-.053-.193-.168-.233-.439-.087-.575-.015-1.806.115-1.961.094-.114.291-.135 1.244-.135 1.036 0 1.14.013 1.217.158.047.087.085.602.085 1.145 0 1.326.01 1.316-1.289 1.309-.528-.003-1.041-.038-1.14-.077zm30.41-.075c-.154-.153-.17-.267-.17-1.157 0-.543.038-1.058.084-1.145.078-.145.181-.158 1.21-.158.768 0 1.158.03 1.225.098.12.12.136 2.17.018 2.356-.06.096-.305.128-1.137.15-.984.024-1.073.014-1.23-.144zm-15.257-.135c-.188-.188-.188-2.172 0-2.36.189-.189 2.173-.189 2.36 0 .104.103.13.333.13 1.18s-.026 1.077-.13 1.18c-.187.188-2.171.188-2.36 0zm-10.926-.238a45.917 45.917 0 0 0-.838-.12c-.034-.002-.061-.212-.061-.465v-.462l.47.057c2.05.247 3.374.21 4.194-.117l.816-.326c.635-.253 1.807-.352 2.98-.252 1.54.131 2.255.253 2.255.385 0 .062-.069.112-.153.112-.084 0-.517.094-.96.21-.665.17-.99.207-1.831.204-1.126-.005-1.908.125-2.466.41-.196.101-.54.235-.766.3-.592.168-2.682.205-3.64.064zm21.31.07c-.88-.173-1.117-.24-1.463-.415-.603-.304-1.36-.434-2.505-.43-.84.004-1.166-.032-1.83-.204-.445-.115-.878-.209-.962-.209-.084 0-.153-.05-.153-.112 0-.132.716-.254 2.256-.385 1.16-.1 2.344-.002 2.959.245l.816.325c.841.336 2.148.374 4.214.125l.47-.057v.455c0 .526.066.491-1.185.63-.71.079-2.282.098-2.618.032z" style="fill:currentColor;stroke-width:.0817996" transform="translate(370.77 -46.803)"/></svg>