<svg xmlns="http://www.w3.org/2000/svg" viewBox="0 0 40.013 40"><path d="M37.268 70.164a1.851 1.851 0 0 1-.536-.46l-.239-.314-.023-15.965-.023-15.965h40l-.024 15.965L76.4 69.39l-.24.315c-.506.664 1.288.609-19.727.607-17.287-.002-18.893-.015-19.165-.148zm26.32-3.67c0-1.549-.336-2.494-1.218-3.419-.969-1.015-1.897-1.33-3.956-1.338-1.378-.006-1.384-.007-.906-.135a4.387 4.387 0 0 0 3.09-3.135c.58-2.22-.842-4.562-3.128-5.158-2.234-.582-4.575.833-5.172 3.126-.578 2.22.822 4.557 3.101 5.17.458.124.44.126-.92.132-2.014.009-2.845.274-3.842 1.225-.94.896-1.333 1.938-1.333 3.531v.964H63.59zm-12.855-9.75v-.715h-5.714V48.887h1.21c1.164 0 1.217-.008 1.428-.22.132-.131.217-.317.215-.468-.003-.139-.686-1.596-1.54-3.285-1.66-3.28-1.689-3.32-2.273-3.12-.21.073-.46.51-1.78 3.12-.855 1.69-1.538 3.146-1.54 3.285-.003.15.082.337.214.469.211.211.263.22 1.428.22h1.21v3.698c0 2.404.033 3.787.095 3.95.052.139.183.348.29.464.399.435.529.45 3.744.454l3.013.004zm-7.74-9.576c.066-.16.378-.942.694-1.74.315-.797.593-1.45.618-1.45.024 0 .303.653.618 1.45.316.798.628 1.58.693 1.74l.12.29H42.875zm25.65 10.061c.136-.101.33-.295.43-.43.18-.24.186-.368.21-4.072l.025-3.824.973-.03c1.052-.033 1.25-.11 1.65-.645.176-.236.184-.36.184-2.912 0-2.553-.008-2.676-.184-2.912a2.553 2.553 0 0 0-.43-.43c-.237-.177-.36-.185-2.913-.185-2.552 0-2.675.008-2.911.185-.136.1-.33.295-.431.43-.176.236-.184.36-.184 2.912 0 2.553.008 2.676.184 2.912.4.534.598.612 1.652.645l.976.03v7.126H62.16v1.435l3.119-.025c2.989-.025 3.128-.034 3.364-.21zm-2.197-11.913v-2.143h4.285v4.286h-4.285zM57.16 50.28V48.82l.413-.104c1.415-.356 2.634-1.603 3.021-3.09.794-3.048-2.116-5.968-5.158-5.175-2.307.6-3.722 2.934-3.139 5.175.388 1.487 1.606 2.734 3.022 3.09l.412.104v2.925H57.161zm-1.473-2.941c-.844-.279-1.358-.695-1.747-1.417-.277-.514-.303-.628-.303-1.321s.026-.808.303-1.322c.338-.626.618-.897 1.29-1.246.388-.202.57-.238 1.216-.24.694-.001.806.024 1.32.302.976.526 1.487 1.387 1.49 2.506.002 1.15-.597 2.094-1.63 2.567-.58.265-1.426.34-1.94.17zM36.467 33.627c.025-2.267.037-2.418.21-2.65.101-.136.295-.33.43-.431.243-.181.346-.184 6.224-.208l5.976-.024-1.43 2.858-1.43 2.86H36.44Zm3.403.854c.918-.383 1.141-1.586.428-2.3-.58-.578-1.406-.578-1.985 0-1.104 1.105.114 2.903 1.557 2.3zm4.286 0c.917-.383 1.14-1.586.427-2.3-.579-.578-1.406-.578-1.985 0-1.104 1.105.114 2.903 1.558 2.3zm5.148-1.307 1.43-2.857h1.428l-1.43 2.857-1.428 2.857H47.875zm2.857 0 1.43-2.857h10.855c12.084 0 11.215-.045 11.714.608l.24.315.027 2.396.026 2.395h-25.72Z" style="fill:currentColor;stroke-width:.0892776" transform="translate(-36.44 -30.314)"/></svg>