<svg xmlns="http://www.w3.org/2000/svg" xml:space="preserve" viewBox="0 0 40.23 39.022"><g aria-label="UX" style="font-size:14.2539px;line-height:1.25;fill:currentColor;stroke-width:.356346"><path d="M554.295 341.565H552l-.926 6.486c-.171 1.254-.727 1.896-1.796 1.896-1.027 0-1.383-.6-1.198-1.853l.913-6.529h-2.295l-.927 6.571c-.285 2.081.784 3.55 3.336 3.55 2.522 0 3.99-1.497 4.261-3.507zM562.904 341.565h-2.466l-1.952 3.25-.927-3.25h-2.466l1.867 4.633-3.463 5.245h2.48l2.166-3.848 1.155 3.848h2.466l-2.067-5.316z" style="font-style:italic;font-weight:700;font-family:&quot;Fira Sans&quot;;-inkscape-font-specification:&quot;Fira Sans Bold Italic&quot;" transform="translate(-528.026 -332.102)"/></g><path d="M532.608 371.008c-.35-.166-4.313-4.511-4.48-4.912a1.256 1.256 0 0 1 .002-.999c.077-.184 1.747-1.75 5.594-5.248 3.016-2.742 5.582-5.049 5.701-5.126.275-.178.905-.19 1.227-.024.315.163 4.232 4.493 4.406 4.87.183.396.172.714-.037 1.092-.119.215-1.91 1.893-5.524 5.174-2.941 2.671-5.463 4.946-5.605 5.055-.336.259-.882.31-1.284.118zm19.85-10.805c-2.383-.359-4.33-1.087-6.127-2.291-2.38-1.595-4.13-3.744-5.224-6.414a14.136 14.136 0 0 1-.743-8.147 13.96 13.96 0 0 1 5.918-8.836 14.058 14.058 0 0 1 9.712-2.293 14.064 14.064 0 0 1 12.226 12.97c.373 5.295-2.234 10.343-6.75 13.07-1.634.988-3.365 1.601-5.382 1.907-.768.117-2.947.137-3.63.034zm3.981-3.998c1.88-.444 3.55-1.355 4.877-2.659 2.838-2.788 3.844-6.94 2.576-10.633-1.183-3.448-3.956-5.912-7.609-6.761-.882-.205-2.748-.258-3.67-.104-3.714.62-6.734 3.071-8.034 6.52-.479 1.271-.653 2.24-.654 3.63-.001.913.037 1.35.172 1.987.91 4.298 4.17 7.423 8.517 8.166.947.161 2.83.09 3.825-.146z" style="fill:currentColor;stroke-width:.0780744" transform="translate(-528.026 -332.102)"/></svg>