<svg xmlns="http://www.w3.org/2000/svg" xml:space="preserve" viewBox="0 0 43 43.1"><path style="fill:transparent" d="M-5.3-4.6h53.8v53.4H-5.3V-4.6z" /><path style="fill:currentColor" d="M43 8.2V35c0 2.2-.8 4.1-2.4 5.7-1.6 1.6-3.5 2.4-5.7 2.4H8.2c-2.2 0-4.1-.8-5.7-2.4C.9 39.1.1 37.2.1 35V8.2c0-2.2.8-4.1 2.4-5.7S6 .1 8.2.1h26.7c2.2 0 4.1.8 5.7 2.4C42.2 4.1 43 6 43 8.2zm-23.8 9.7s-1.2-2.1-3.5-6.2c-.4-.6-.9-.9-1.5-.9H9.1c-.3 0-.6.1-.7.3-.1.2-.1.5 0 .8l3.5 6-5.5 9.7c-.2.3-.2.5 0 .8.1.2.4.4.7.4h5.2c.6 0 1-.3 1.4-1l5.5-9.9zM36.6 4c-.1-.2-.4-.3-.7-.3h-5.2c-.6 0-1 .3-1.4 1L17.9 25s2.5 4.5 7.3 13.4c.4.7.9 1 1.5 1h5.1c.3 0 .6-.1.7-.3.1-.2.1-.5 0-.8L25.2 25 36.6 4.8c.2-.3.2-.5 0-.8z"/></svg>