<svg xmlns="http://www.w3.org/2000/svg" xml:space="preserve" style="fill-rule:evenodd;clip-rule:evenodd" viewBox="0 0 40 32"><path d="M8.309 0C6.026 0 4.337 1.999 4.412 4.166c.073 2.082-.02 4.778-.7 6.977-.68 2.205-1.832 3.6-3.712 3.779v2.031c1.88.18 3.032 1.574 3.713 3.78.679 2.198.772 4.894.7 6.976-.076 2.167 1.613 4.166 3.896 4.166h23.386c2.283 0 3.97-1.999 3.895-4.166-.073-2.082.022-4.778.701-6.977.68-2.205 1.829-3.6 3.709-3.779v-2.031c-1.88-.18-3.028-1.574-3.709-3.78-.679-2.198-.774-4.894-.701-6.976C35.665 1.999 33.978 0 31.695 0H8.31zm5.59 7.457h6.933c3.081 0 5.104 1.67 5.104 4.23 0 1.798-1.361 3.408-3.094 3.69v.094c2.359.258 3.947 1.89 3.947 4.146 0 2.984-2.227 4.793-5.922 4.793h-6.969V7.457zm2.695 2.15v5.065h3.021c2.335 0 3.623-.941 3.623-2.621 0-1.575-1.107-2.444-3.056-2.444h-3.588zm0 7.073v5.582h3.72c2.432 0 3.72-.976 3.72-2.809 0-1.833-1.324-2.773-3.876-2.773h-3.564z" style="fill:#fff;fill-rule:nonzero;stroke-width:.078125"/></svg>