<svg xmlns="http://www.w3.org/2000/svg" xml:space="preserve" viewBox="0 0 36.617 39.072"><path d="M545.904 370.992c-1.887-.341-3.622-1.74-4.334-3.494-.315-.774-.397-1.234-.395-2.2.002-.747.037-1.03.187-1.523.182-.596.182-.606.036-.716a603 603 0 0 0-3.7-2.506l-3.55-2.396-.742.713c-2.812 2.699-6.652 3.604-10.342 2.439-1.533-.485-2.875-1.316-4.109-2.544-1.522-1.517-2.404-3.164-2.873-5.366-.19-.891-.19-2.912 0-3.804.47-2.203 1.357-3.863 2.875-5.373 1.9-1.891 4.182-2.898 6.848-3.023 2.792-.13 5.542.93 7.611 2.933l.73.707 3.552-2.397a605.303 605.303 0 0 0 3.7-2.507c.146-.11.146-.12-.036-.716-.15-.492-.185-.776-.187-1.522-.005-1.708.54-3.003 1.748-4.15 1.16-1.1 2.325-1.572 3.907-1.58 1.657-.008 2.86.477 4.038 1.628.663.648 1.124 1.386 1.44 2.305.233.68.249.793.249 1.759 0 .956-.018 1.083-.238 1.724-.32.93-.705 1.566-1.354 2.239-.672.695-1.395 1.152-2.338 1.476-.68.233-.793.25-1.759.25-.965 0-1.079-.017-1.758-.25-.75-.257-1.657-.767-1.982-1.113-.102-.109-.23-.198-.284-.198-.077 0-6.992 4.62-7.341 4.905-.065.052-.02.228.167.66.304.704.618 1.758.737 2.477l.086.521 2.378-.002 2.378-.002.218-.682c.272-.854.782-1.644 1.491-2.313.658-.62 1.287-.995 2.187-1.303.622-.213.787-.237 1.647-.242 1.697-.009 2.887.466 4.076 1.627.663.648 1.124 1.386 1.44 2.305.233.68.249.793.249 1.759 0 .956-.018 1.083-.238 1.724-.32.93-.705 1.566-1.354 2.239-.672.696-1.395 1.152-2.338 1.476-.68.233-.793.25-1.758.25-.957 0-1.084-.018-1.724-.239-.97-.334-1.581-.714-2.297-1.43-.715-.714-1.111-1.35-1.397-2.239l-.202-.63-2.377-.002-2.377-.002-.098.554c-.137.776-.427 1.75-.727 2.443-.187.433-.232.609-.167.662.353.288 7.264 4.904 7.343 4.904.055 0 .165-.074.245-.165.391-.441 1.594-1.069 2.483-1.295.539-.137 2.05-.137 2.589 0 1.063.27 1.91.747 2.705 1.525.663.647 1.124 1.386 1.44 2.305.233.68.249.793.249 1.758 0 .957-.018 1.083-.238 1.724-.32.93-.705 1.567-1.354 2.24-1.052 1.09-2.369 1.682-3.858 1.734-.446.016-.988-.003-1.203-.041zm2.111-5.656v-1.147h-2.293v2.293h2.293zm-20.659-8.225a5.741 5.741 0 0 0 4.483-4.483c.817-3.984-2.76-7.561-6.744-6.744-3.102.636-5.114 3.664-4.483 6.744.635 3.097 3.669 5.113 6.744 4.483zm-1.933-2.281c-1.723-.428-2.87-2.157-2.575-3.88.32-1.862 2.096-3.144 3.924-2.83a3.453 3.453 0 0 1 2.833 2.84c.405 2.362-1.85 4.449-4.182 3.87zm1.95-3.333v-1.147h-2.294v2.294h2.293zm20.642 0v-1.147h-2.293v2.294h2.293zm0-13.838v-1.147h-2.293v2.294h2.293z" style="fill:#fff;stroke-width:.0764557" transform="translate(-515.94 -331.967)"/></svg>