<?xml version="1.0" encoding="UTF-8" standalone="no"?>
<!-- Created with Inkscape (http://www.inkscape.org/) -->

<svg
   width="36.617188"
   height="39.071877"
   viewBox="0 0 36.617189 39.071875"
   version="1.1"
   id="svg5"
   xml:space="preserve"
   xmlns="http://www.w3.org/2000/svg"
   xmlns:svg="http://www.w3.org/2000/svg"><defs
     id="defs2" /><g
     id="layer1"
     transform="translate(-515.93967,-331.96718)"><g
       aria-label="UX"
       id="text21328"
       style="font-size:20.3173px;line-height:1.25;stroke-width:0.507933" /><g
       aria-label="UI"
       id="text21332"
       style="font-size:20.3173px;line-height:1.25;stroke-width:0.507933" /><path
       style="fill:#ffffff;stroke-width:0.0764557"
       d="m 545.90416,370.99179 c -1.88672,-0.34093 -3.62168,-1.73935 -4.33457,-3.49378 -0.31463,-0.77432 -0.39701,-1.23394 -0.39442,-2.20061 0.002,-0.74635 0.0368,-1.03026 0.18671,-1.5222 0.18168,-0.59633 0.18219,-0.60629 0.0357,-0.71577 -0.0817,-0.0611 -1.74617,-1.18902 -3.69881,-2.50658 l -3.55024,-2.39556 -0.74264,0.7128 c -2.81186,2.69889 -6.65169,3.6043 -10.34191,2.43857 -1.53346,-0.48442 -2.87542,-1.31535 -4.10881,-2.54413 -1.52203,-1.51634 -2.40432,-3.164 -2.87314,-5.36553 -0.18981,-0.8913 -0.18981,-2.91231 0,-3.80362 0.46918,-2.20324 1.35743,-3.86339 2.87485,-5.37321 1.90096,-1.89142 4.18224,-2.8985 6.84814,-3.02313 2.79223,-0.13052 5.54242,0.92918 7.61102,2.93267 l 0.73003,0.70705 3.55148,-2.39639 c 1.95331,-1.31802 3.61832,-2.44635 3.70003,-2.50742 0.14649,-0.10947 0.14599,-0.11944 -0.0357,-0.71576 -0.14989,-0.49195 -0.18471,-0.77586 -0.18671,-1.52221 -0.005,-1.70827 0.54072,-3.00261 1.74818,-4.14958 1.15934,-1.10126 2.32497,-1.57269 3.90691,-1.58012 1.65713,-0.008 2.85986,0.47705 4.03771,1.62761 0.66312,0.64776 1.12428,1.38624 1.43964,2.30539 0.23313,0.67947 0.24921,0.79291 0.24921,1.75848 0,0.95613 -0.0176,1.0831 -0.23807,1.72399 -0.32003,0.92998 -0.705,1.56663 -1.35391,2.23902 -0.67141,0.6957 -1.39515,1.15266 -2.33788,1.47611 -0.67947,0.23313 -0.79291,0.24921 -1.75847,0.24921 -0.96557,0 -1.079,-0.0161 -1.75848,-0.24921 -0.74951,-0.25716 -1.65715,-0.76685 -1.98205,-1.11304 -0.10194,-0.10862 -0.22956,-0.19749 -0.28358,-0.19749 -0.0775,0 -6.99211,4.61913 -7.34137,4.90419 -0.0648,0.0529 -0.0204,0.22888 0.16693,0.66127 0.30439,0.70273 0.61816,1.75709 0.73695,2.47643 l 0.0861,0.52112 2.37802,-0.002 2.37803,-0.002 0.21786,-0.68229 c 0.27259,-0.85371 0.78218,-1.64404 1.49148,-2.31317 0.65806,-0.62078 1.28616,-0.99509 2.18614,-1.30282 0.62288,-0.21298 0.78711,-0.23709 1.64754,-0.24187 1.69695,-0.009 2.88729,0.46564 4.07594,1.62675 0.66312,0.64776 1.12428,1.38624 1.43964,2.30539 0.23313,0.67947 0.24921,0.79291 0.24921,1.75847 0,0.95614 -0.0176,1.08311 -0.23807,1.724 -0.32003,0.92998 -0.705,1.56663 -1.35391,2.23901 -0.67141,0.6957 -1.39515,1.15266 -2.33788,1.47612 -0.67947,0.23313 -0.79291,0.2492 -1.75847,0.2492 -0.95613,0 -1.08311,-0.0176 -1.724,-0.23807 -0.96991,-0.33376 -1.58049,-0.71394 -2.29641,-1.42985 -0.71465,-0.71466 -1.1115,-1.35088 -1.39672,-2.23922 l -0.20235,-0.63022 -2.37699,-0.002 -2.37699,-0.002 -0.0979,0.5543 c -0.13713,0.77629 -0.42704,1.75033 -0.72718,2.44325 -0.18729,0.43239 -0.23172,0.60839 -0.16693,0.66127 0.35336,0.28842 7.26438,4.90419 7.34285,4.90419 0.0548,0 0.16524,-0.074 0.24535,-0.16453 0.39079,-0.44145 1.59391,-1.06918 2.48301,-1.29554 0.53877,-0.13715 2.04976,-0.13715 2.58853,0 1.06367,0.2708 1.90957,0.74759 2.70522,1.5248 0.66312,0.64775 1.12428,1.38624 1.43964,2.30539 0.23313,0.67947 0.24921,0.79291 0.24921,1.75848 0,0.95612 -0.0176,1.0831 -0.23807,1.72399 -0.32003,0.92999 -0.705,1.56662 -1.35391,2.23902 -1.05232,1.09038 -2.3685,1.68239 -3.8574,1.73505 -0.4468,0.0158 -0.98828,-0.003 -1.20328,-0.0419 z m 2.11116,-5.65616 v -1.14684 h -1.14683 -1.14683 v 1.14684 1.14683 h 1.14683 1.14683 z m -20.65886,-8.22509 c 2.26317,-0.464 4.0184,-2.21923 4.4824,-4.4824 0.81686,-3.98436 -2.75993,-7.56115 -6.74429,-6.74429 -3.10111,0.63579 -5.11387,3.6642 -4.4824,6.74429 0.63489,3.0967 3.66858,5.11297 6.74429,4.4824 z m -1.93373,-2.28073 c -1.72286,-0.4276 -2.87054,-2.15633 -2.57516,-3.8789 0.31948,-1.86304 2.09629,-3.14512 3.92432,-2.83165 1.45925,0.25024 2.5819,1.37568 2.83301,2.84007 0.40518,2.36281 -1.84946,4.44943 -4.18217,3.87048 z m 1.94962,-3.33262 v -1.14683 h -1.14683 -1.14684 v 1.14683 1.14684 h 1.14684 1.14683 z m 20.64297,0 v -1.14683 h -1.14683 -1.14683 v 1.14683 1.14684 h 1.14683 1.14683 z m 0,-13.83843 v -1.14684 h -1.14683 -1.14683 v 1.14684 1.14683 h 1.14683 1.14683 z"
       id="path439" /></g></svg>
