<?xml version="1.0" encoding="UTF-8" standalone="no"?>
<svg
   width="100%"
   height="100%"
   viewBox="0 0 29 40"
   version="1.1"
   xml:space="preserve"
   style="fill-rule:evenodd;clip-rule:evenodd;stroke-linejoin:round;stroke-miterlimit:2;"
   id="svg458"
   sodipodi:docname="CSS3_Logo_weiss.svg"
   inkscape:version="1.2.1 (ef4d3fba62, 2022-07-19, custom)"
   xmlns:inkscape="http://www.inkscape.org/namespaces/inkscape"
   xmlns:sodipodi="http://sodipodi.sourceforge.net/DTD/sodipodi-0.dtd"
   xmlns="http://www.w3.org/2000/svg"
   xmlns:svg="http://www.w3.org/2000/svg"><defs
   id="defs462">
        
    
            
        
                
                
                
                
                
                
                
                
                
            </defs><sodipodi:namedview
   id="namedview460"
   pagecolor="#505050"
   bordercolor="#eeeeee"
   borderopacity="1"
   inkscape:showpageshadow="0"
   inkscape:pageopacity="0"
   inkscape:pagecheckerboard="0"
   inkscape:deskcolor="#505050"
   showgrid="false"
   inkscape:zoom="13.947681"
   inkscape:cx="22.691944"
   inkscape:cy="15.271356"
   inkscape:window-width="1920"
   inkscape:window-height="1016"
   inkscape:window-x="0"
   inkscape:window-y="0"
   inkscape:window-maximized="1"
   inkscape:current-layer="svg458" />
    <path
   d="M 5.7072336,0.01180657 C 7.4602233,-0.00989711 9.213213,0.00512852 10.966203,0.00429376 c 0.0042,0.54843535 0.01252,1.09687074 -0.0075,1.64530604 -1.2145715,-0.00835 -2.4283082,0 -3.6420449,0.00751 -0.00835,0.7963582 -0.024208,1.5927164 -0.016695,2.3890746 1.2187452,0.00751 2.4383252,0.019199 3.6570699,0.014191 0.01419,0.4507688 0.0092,0.9032071 -0.0042,1.3548106 -1.7479815,-0.011687 -3.4959626,-0.00668 -5.2439438,-0.00501 0.00417,-1.7997361 0.00751,-3.5986374 -0.00167,-5.39837353 z"
   style="fill-rule:nonzero;stroke-width:0.0834757;fill:#ffffff"
   id="path435" /><path
   d="m 11.591436,0.00596327 c 1.774693,-0.00333903 3.549386,-0.01419087 5.324915,0.0058433 -0.0067,0.5183841 -0.0017,1.03593343 -0.0017,1.55431753 -1.291369,-0.00417 -2.583573,0.00167 -3.874942,0.016695 0.0017,0.2036808 0.0017,0.4073615 0,0.6110422 1.2897,0.020869 2.578564,0.023373 3.867429,0.030886 0.005,1.0626456 0.0025,2.1244565 0.0092,3.1862674 -1.775529,-0.00334 -3.551057,-0.00167 -5.326585,0.00668 -0.0092,-0.4290651 -0.01002,-0.8572954 0.0025,-1.2863605 1.230432,0.00334 2.461699,0.00501 3.692131,-0.00501 0.0075,-0.2763045 0.01085,-0.5534439 0.01002,-0.8297484 -1.236275,0 -2.473385,0.00417 -3.70966,-0.00417 0,-1.0952012 0,-2.1912371 0.0067,-3.28643833 z"
   style="fill-rule:nonzero;stroke-width:0.0834757;fill:#ffffff"
   id="path437" /><path
   d="m 17.510698,0.0151456 h 5.314897 c 0.0075,0.52088837 0.01503,1.0417767 -0.0017,1.5618303 -1.297212,-8.347e-4 -2.594425,0.00668 -3.891637,0.00918 0.0033,0.212863 0.0083,0.425726 0.0192,0.6385891 1.2897,-0.00584 2.579399,0.010017 3.868264,0.023373 0.01169,1.0576371 0.02003,2.1152742 0.005,3.1729113 -1.775528,-0.00501 -3.551057,-0.00501 -5.326585,0.00334 -0.01085,-0.4273956 -0.01419,-0.8564607 0.0042,-1.2838563 1.227928,0.00918 2.45669,0.00751 3.685452,-0.00417 0.0033,-0.2771393 0.0092,-0.5542786 0.0067,-0.8305832 -1.232936,0.011687 -2.466707,0.00501 -3.700478,8.348e-4 0,-1.0968707 0.0083,-2.1945762 0.0167,-3.2914469 z"
   style="fill-rule:nonzero;stroke-width:0.0834757;fill:#ffffff"
   id="path439" /><path
   id="path441"
   style="fill:#ffffff;fill-rule:nonzero;stroke-width:0.0834757"
   d="M 0 7.6503906 L 0 7.8066406 C 0.18281142 9.378485 0.29255227 10.95802 0.4453125 12.533203 C 0.88606332 17.767119 1.3835161 22.997388 1.8417969 28.230469 C 2.0847106 31.062794 2.3305507 33.893954 2.6035156 36.724609 C 4.6979168 37.286401 6.7736212 37.916173 8.8671875 38.480469 C 10.641042 39.008034 12.433173 39.472435 14.207031 40 L 14.261719 40 C 16.125728 39.45741 18.004012 38.96278 19.867188 38.416016 C 21.895641 37.875928 23.904304 37.262193 25.933594 36.724609 C 26.28586 32.948177 26.619476 29.169562 26.943359 25.390625 C 27.488456 19.478053 28.003952 13.564632 28.527344 7.6503906 C 19.017811 7.6487206 9.5095327 7.6495559 0 7.6503906 z M 14.289062 13.390625 C 17.422733 13.407355 20.554663 13.387069 23.6875 13.412109 C 23.642424 14.34787 23.522698 15.277965 23.455078 16.212891 C 23.424189 16.507558 23.428079 16.807712 23.349609 17.095703 C 23.150104 17.250968 22.908693 17.337062 22.681641 17.441406 C 21.504636 17.96313 20.317363 18.462401 19.144531 18.994141 C 17.922449 19.540905 16.67083 20.02596 15.480469 20.638672 C 15.801013 20.662042 16.123098 20.663809 16.445312 20.662109 C 18.657414 20.652919 20.869929 20.660126 23.082031 20.648438 C 22.850803 24.345569 22.485144 28.033038 22.15625 31.722656 C 19.555153 32.400479 16.966315 33.120941 14.359375 33.775391 C 14.334329 33.780391 14.282852 33.791875 14.257812 33.796875 C 14.075003 33.811901 13.898789 33.746544 13.722656 33.708984 C 12.241801 33.313312 10.743977 32.978523 9.265625 32.576172 C 8.3006479 32.313224 7.331881 32.06655 6.3652344 31.814453 C 6.0839219 29.993017 5.9202156 28.155372 5.8242188 26.316406 C 6.8050563 26.301416 7.7856223 26.310486 8.765625 26.304688 C 8.9676358 26.308026 9.1738078 26.303181 9.3691406 26.363281 C 9.4542856 27.31991 9.5211907 28.27858 9.6171875 29.234375 C 10.292504 29.430543 10.994352 29.508781 11.679688 29.658203 C 12.548668 29.812633 13.410884 30.005379 14.283203 30.134766 C 14.298438 29.636834 14.304765 29.138686 14.306641 28.640625 C 14.308517 28.142564 14.305277 27.644588 14.302734 27.146484 C 14.305186 27.644729 14.308585 28.142458 14.306641 28.640625 C 14.304697 29.138792 14.298438 29.636834 14.283203 30.134766 C 14.757345 29.911886 15.269229 29.79255 15.767578 29.640625 C 16.702505 29.360146 17.642898 29.103798 18.570312 28.800781 C 18.650449 27.253978 18.778971 25.708913 18.863281 24.162109 C 17.349868 24.172139 15.836797 24.132323 14.324219 24.158203 C 13.027843 24.186603 11.729968 24.161269 10.433594 24.167969 C 8.8158382 24.170479 7.199787 24.195372 5.5820312 24.201172 C 5.4960514 22.992446 5.2998816 21.787402 5.2773438 20.576172 C 5.4818587 20.427585 5.7263553 20.351841 5.9550781 20.25 C 8.6221215 19.083847 11.311441 17.960727 13.966797 16.769531 C 10.931627 16.678511 7.8925922 16.796287 4.8574219 16.683594 C 4.7054964 15.590065 4.5578821 14.49529 4.5019531 13.392578 C 7.7641771 13.389243 11.026839 13.378935 14.289062 13.390625 z " />
</svg>
