<svg viewBox="0 0 29 40" xmlns="http://www.w3.org/2000/svg" xml:space="preserve" fill-rule="evenodd" clip-rule="evenodd" stroke-linejoin="round" stroke-miterlimit="2"><g fill-rule="nonzero"><path d="M5.707.012C7.46-.01 9.213.005 10.967.004c.003.549.012 1.097-.008 1.646-1.215-.009-2.429 0-3.642.007-.009.796-.025 1.593-.017 2.39 1.219.007 2.438.018 3.657.013.014.451.01.904-.004 1.355-1.748-.011-3.496-.006-5.244-.005.004-1.8.007-3.598-.002-5.398ZM11.591.006c1.775-.003 3.55-.014 5.325.006-.006.518-.001 1.036-.001 1.554-1.292-.004-2.584.002-3.875.017v.61c1.29.022 2.578.024 3.867.032.005 1.062.003 2.124.01 3.186a809.264 809.264 0 0 0-5.327.007c-.01-.43-.01-.858.002-1.287 1.23.004 2.462.005 3.692-.005a27.5 27.5 0 0 0 .01-.83c-1.236 0-2.473.005-3.71-.004 0-1.095 0-2.19.007-3.286ZM17.51.015h5.316c.007.521.015 1.042-.002 1.562-1.297 0-2.594.007-3.892.01.004.212.009.425.02.638 1.29-.006 2.579.01 3.868.023.011 1.058.02 2.115.005 3.173a708.106 708.106 0 0 0-5.327.003c-.01-.427-.014-.856.004-1.283 1.228.009 2.457.007 3.686-.005.003-.277.009-.554.006-.83-1.232.011-2.466.005-3.7 0 0-1.096.008-2.194.017-3.29Z"/><path d="M0 7.65c9.51-.001 19.018-.002 28.528 0-.524 5.914-1.039 11.828-1.584 17.74-.324 3.78-.658 7.559-1.01 11.335-2.03.538-4.038 1.15-6.067 1.69-1.863.547-3.741 1.042-5.605 1.585h-.055c-1.774-.528-3.566-.992-5.34-1.52-2.093-.564-4.168-1.193-6.263-1.755-.273-2.83-.519-5.663-.762-8.495C1.384 22.997.886 17.767.445 12.533.292 10.958.183 9.378 0 7.806V7.65m14.309 2.333c-.02 1.136.015 2.273-.02 3.408-3.263-.011-6.526-.002-9.788.001.056 1.103.204 2.198.356 3.292 3.035.112 6.074-.005 9.11.086-2.656 1.192-5.344 2.313-8.011 3.48-.229.101-.473.178-.678.327.023 1.211.218 2.416.304 3.624 1.618-.005 3.235-.031 4.852-.034 1.297-.007 2.594.02 3.89-.009-.061 1.992.02 3.986-.041 5.978-.873-.13-1.734-.324-2.603-.479-.685-.15-1.387-.227-2.063-.423-.096-.956-.163-1.915-.248-2.871-.195-.06-.402-.055-.604-.058-.98.006-1.96-.003-2.942.012a54.67 54.67 0 0 0 .543 5.497c.967.252 1.935.499 2.9.762 1.478.402 2.975.737 4.456 1.132.176.038.354.103.536.088.099 1.21.023 2.427.041 3.64.342-.055.677-.14 1.007-.242 2.803-.76 5.603-1.536 8.404-2.305.14-1.102.205-2.211.315-3.316.291-3.357.585-6.715.89-10.071.359-3.84.669-7.684 1.03-11.524-3.88.003-7.758-.008-11.636.005Z" fill="#0170ba"/><path d="M14.309 9.983c3.878-.013 7.756-.002 11.635-.005-.36 3.84-.67 7.684-1.028 11.524-.306 3.356-.6 6.714-.89 10.071-.111 1.105-.176 2.214-.316 3.316-2.801.769-5.6 1.544-8.404 2.305-.33.102-.665.187-1.007.242-.018-1.213.058-2.43-.04-3.64l.1-.02c2.607-.654 5.197-1.375 7.798-2.053.329-3.69.694-7.377.925-11.074-2.212.011-4.425.005-6.637.014-.323.002-.645 0-.965-.024 1.19-.612 2.442-1.098 3.664-1.645 1.173-.532 2.36-1.03 3.537-1.552.227-.104.47-.19.669-.346.078-.288.074-.59.105-.884.068-.935.188-1.865.233-2.8-3.133-.026-6.266-.004-9.4-.02.036-1.136 0-2.273.02-3.409Z" fill="#29a9df"/><path d="M14.324 24.158c1.513-.026 3.026.015 4.54.005-.084 1.547-.213 3.091-.293 4.638-.928.303-1.87.56-2.804.84-.498.152-1.01.272-1.484.495.06-1.992-.02-3.986.041-5.978Z" fill="#29a9df"/><path d="M4.501 13.392c3.262-.003 6.525-.012 9.788 0 .042 3.589-.011 7.178.035 10.766-1.296.028-2.593.002-3.89.01-1.617.002-3.234.028-4.852.033-.086-1.208-.281-2.413-.304-3.624.205-.149.45-.226.678-.327 2.667-1.167 5.355-2.288 8.01-3.48-3.035-.09-6.074.026-9.11-.086-.151-1.094-.3-2.19-.355-3.292ZM5.823 26.317c.981-.015 1.962-.006 2.942-.012.202.003.409-.003.604.058.085.956.152 1.915.248 2.871.676.196 1.378.274 2.063.423.869.155 1.73.35 2.603.479.083 1.212-.063 2.432.076 3.64l-.1.02c-.183.015-.361-.05-.537-.088-1.481-.395-2.978-.73-4.456-1.132-.965-.263-1.933-.51-2.9-.762a54.67 54.67 0 0 1-.543-5.497Z" fill="#cfcfcf"/><path d="M14.289 13.391c3.133.017 6.266-.005 9.399.02-.045.936-.165 1.866-.233 2.8-.03.296-.027.597-.105.885-.2.155-.442.242-.669.346-1.177.522-2.364 1.02-3.537 1.552-1.222.547-2.474 1.033-3.664 1.645.32.024.642.026.965.024 2.212-.01 4.425-.003 6.637-.014-.231 3.697-.596 7.385-.925 11.074-2.601.678-5.19 1.399-7.798 2.053-.139-1.208.007-2.428-.076-3.64.474-.223.986-.343 1.484-.495.935-.28 1.876-.537 2.804-.84.08-1.547.209-3.091.293-4.638-1.514.01-3.027-.03-4.54-.005-.046-3.588.007-7.177-.035-10.767Z" fill="#fff"/></g></svg>