<svg xmlns="http://www.w3.org/2000/svg" viewBox="0 0 166.657 40.022"><path d="M23.053 40.01c-.509.042-.814-.026-1.254-.28-.324-.186-.695-.56-.836-.842-.14-.279-.255-.808-.255-1.176 0-.455.105-.824.327-1.15.18-.265.507-.615.727-.777.274-.204.623-.296 1.114-.296.533 0 .866.1 1.307.391l.592.392H39.45l3.77-3.818c2.075-2.1 4.109-4.195 4.52-4.656l.75-.838V12.978L47.3 11.716a375.424 375.424 0 0 0-4.465-4.571l-3.277-3.31h-16.68l-.444.328c-.329.243-.642.327-1.22.327-.557 0-.89-.084-1.178-.3a4.023 4.023 0 0 1-.681-.674c-.154-.206-.313-.667-.353-1.025-.05-.447.007-.82.182-1.189.14-.295.481-.71.758-.92.378-.29.67-.384 1.18-.382.452.001.916.131 1.402.392l.726.389h17.522l3.754 3.818c2.064 2.1 4.455 4.548 5.312 5.439l1.56 1.62V28.215l-.327.443c-.18.244-2.586 2.744-5.347 5.556l-5.02 5.112h-8.048c-8.014 0-8.051.001-8.49.315-.249.176-.736.338-1.114.37zm-.188-1.41c.2 0 .485-.11.632-.242.146-.132.266-.423.266-.646 0-.254-.121-.49-.324-.632-.177-.124-.44-.226-.581-.226-.143 0-.39.13-.55.29-.16.16-.29.434-.29.607 0 .174.108.436.24.582a.935.935 0 0 0 .607.266zM21.19 3.103c.146.002.391-.063.546-.146.193-.104.281-.305.281-.644 0-.272-.103-.597-.228-.723a.928.928 0 0 0-.572-.228.928.928 0 0 0-.571.228c-.126.126-.229.45-.229.72 0 .315.092.545.255.64.14.082.373.15.518.153zm-5.718 31.063c-.12.03-.468-.035-.774-.143-.305-.109-.688-.318-.85-.465a2.797 2.797 0 0 1-.5-.661c-.112-.217-.204-.714-.204-1.106 0-.5.098-.856.328-1.193.18-.264.556-.605.836-.758.367-.2.704-.26 1.21-.217.405.036.877.192 1.12.373.422.311.43.311 10.509.311h10.087l2.719-2.832 2.719-2.832V15.271l-2.795-2.809-2.795-2.808H17.506l-.603.436c-.485.352-.749.436-1.359.436-.544 0-.895-.092-1.25-.33a2.608 2.608 0 0 1-.75-.836 2.831 2.831 0 0 1-.254-1.066c0-.308.106-.784.236-1.057.13-.274.43-.636.668-.805.237-.17.71-.34 1.051-.378.436-.049.826.022 1.314.238.687.303.823.307 11.235.307h10.54l.766.764c.422.42 2.052 2.08 3.624 3.69l2.857 2.927v6.019l-.001 6.018-3.575 3.673-3.576 3.673H27.81c-10.136 0-10.637.012-11.006.272-.212.15-.55.318-.75.375-.2.057-.461.127-.581.157zm-.178-1.386c.142 0 .404-.102.582-.226a.768.768 0 0 0 .323-.645c0-.23-.103-.52-.229-.646-.125-.126-.398-.228-.606-.228a1.11 1.11 0 0 0-.644.24.904.904 0 0 0-.266.582c0 .188.13.472.29.632.16.16.408.291.55.291zm.156-23.564c.136 0 .393-.102.571-.226a.782.782 0 0 0 .323-.591c0-.201-.067-.492-.15-.647-.104-.193-.305-.281-.646-.281-.348 0-.564.097-.723.323-.124.178-.226.398-.226.49 0 .091.136.338.301.55.166.21.414.382.55.382zM7.768 28.123c-.203-.002-.646-.129-.984-.282-.355-.161-.74-.483-.909-.76a3.426 3.426 0 0 1-.38-.945c-.05-.255-.013-.693.08-.973.092-.28.296-.672.452-.87.156-.2.575-.473.93-.609.42-.16.823-.214 1.148-.153.275.052.745.289 1.044.526l.545.433h3.252c2.534 0 3.253-.04 3.253-.185 0-.101-.59-.772-1.312-1.49l-1.312-1.307-4.588-.044L4.4 21.42l-.948.462c-.738.36-1.072.445-1.511.386a2.68 2.68 0 0 1-1.01-.393 2.657 2.657 0 0 1-.686-.778C.111 20.843.001 20.34 0 19.978c-.001-.393.111-.85.28-1.137.156-.264.507-.62.781-.789.325-.201.74-.309 1.189-.309.511 0 .835.101 1.254.392l.565.391h10.812l2.936 2.982 2.936 2.982h13.97l1.065-1.065 1.066-1.065v-4.656l-1.149-1.118-1.149-1.117-6.148.038c-4.618.028-6.163.08-6.206.212-.032.096.519.767 1.224 1.49l1.282 1.318h2.814c2.591 0 2.842-.024 3.182-.291.203-.16.623-.359.932-.442a2.054 2.054 0 0 1 1.115-.003c.304.082.725.33.937.551.21.221.453.587.538.812.085.225.155.657.155.96 0 .332-.13.742-.327 1.032-.18.264-.513.618-.738.785-.297.22-.628.304-1.188.304-.603 0-.886-.081-1.262-.363-.483-.362-.504-.364-3.976-.399l-3.491-.035-2.863-2.947-2.862-2.947h-7.657l-.485.364c-.376.282-.66.364-1.262.364-.558 0-.89-.085-1.179-.3a4.051 4.051 0 0 1-.685-.68c-.156-.21-.311-.696-.344-1.082-.043-.49.019-.855.202-1.208.144-.279.482-.653.751-.833.27-.18.71-.368.98-.419.38-.07.706.012 1.43.36l.937.453H36.09l1.827 1.884 1.826 1.885.049 3.388c.034 2.34-.003 3.523-.12 3.824-.094.24-.946 1.205-1.894 2.143l-1.724 1.706-13.382.04-13.382.039-.576.327c-.317.18-.743.326-.946.324zm.055-1.48c.303-.03.51-.169.662-.444.2-.359.2-.44 0-.8-.144-.26-.366-.416-.63-.447a.933.933 0 0 0-.687.204.956.956 0 0 0-.278.618c0 .201.111.489.247.639.162.178.4.258.686.23zm-5.573-5.79c.254 0 .49-.12.632-.323.124-.177.226-.44.226-.581 0-.143-.13-.39-.29-.55-.16-.16-.434-.29-.607-.29-.174 0-.436.108-.582.24a.935.935 0 0 0-.266.607c0 .201.108.485.24.632.133.146.424.266.647.266zm29.951 0c.267 0 .5-.116.644-.323.125-.177.227-.44.227-.581 0-.143-.131-.39-.291-.55-.16-.16-.433-.29-.607-.29s-.435.108-.582.24c-.146.132-.266.422-.266.644 0 .222.103.506.229.632s.416.229.646.229zM8.271 14.89c.17 0 .413-.082.54-.182.127-.1.272-.319.321-.486.058-.196-.018-.442-.214-.69-.175-.224-.449-.387-.646-.387-.198 0-.471.163-.647.386-.196.25-.272.495-.214.691.05.167.194.386.321.486.128.1.37.182.54.182zm118.651-1.49c-8.363.03-10.236.002-10.296-.155-.04-.105-.055-.908-.032-1.782l.041-1.591h20.51v3.491z" fill="#fad50f"/><path d="M68.888 30.163c-6.883 0-8.786-.04-8.84-.182-.039-.1-.053-4.665-.032-10.145l.038-9.964 8.626-.038c7.318-.031 8.773-.004 9.585.185a9.203 9.203 0 0 1 1.846.692c.489.259 1.28.863 1.76 1.343s1.084 1.27 1.342 1.757a9.79 9.79 0 0 1 .69 1.74c.172.658.223 1.691.222 4.497-.001 2.579-.059 3.854-.197 4.37-.107.4-.399 1.13-.648 1.623-.25.492-.809 1.278-1.243 1.745-.434.467-1.159 1.072-1.61 1.343a8.692 8.692 0 0 1-1.794.764c-.898.25-1.648.27-9.744.27zm1.51-3.637c4.622 0 6.96-.052 7.334-.164.301-.09.864-.403 1.25-.695.471-.355.848-.814 1.142-1.39l.439-.858v-3.428c0-3.29-.014-3.455-.336-4.104a5.716 5.716 0 0 0-.873-1.22 5.004 5.004 0 0 0-1.191-.851c-.638-.3-.834-.308-7.564-.308h-6.91l-.037 6.51-.038 6.508zm26.851 3.635c-6.882.001-8.783-.037-8.838-.18-.038-.1-.052-4.665-.031-10.145l.037-9.964 8.627-.038c7.318-.031 8.772-.004 9.585.185a9.203 9.203 0 0 1 1.846.692c.488.259 1.28.863 1.76 1.343s1.084 1.27 1.341 1.757a9.79 9.79 0 0 1 .691 1.74c.172.658.223 1.697.223 4.507 0 2.936-.046 3.807-.235 4.442a12.207 12.207 0 0 1-.674 1.661c-.256.507-.841 1.271-1.402 1.829-.554.551-1.31 1.127-1.78 1.356-.451.219-1.171.491-1.6.606-.636.169-2.415.208-9.55.21zm1.616-3.635h6.888l.89-.444c.49-.245 1.066-.654 1.282-.91.216-.255.53-.758.697-1.118.282-.606.304-.91.304-4.073 0-3.27-.014-3.448-.333-4.095-.183-.372-.651-.974-1.04-1.337-.485-.454-.95-.731-1.49-.888-.671-.195-1.743-.223-7.397-.19l-6.612.037-.038 6.51-.038 6.509zm28.086 3.601c-5.606.021-10.237-.007-10.29-.06-.054-.054-.098-2.702-.098-5.883 0-4.469.041-5.813.181-5.903.1-.065 3.941-.139 8.536-.164 4.594-.025 8.505-.007 8.69.04.33.082.338.126.338 1.811 0 1.44-.038 1.742-.23 1.816-.126.048-3.301.088-7.054.088h-6.825v4.654h8.346c6.96 0 8.374.034 8.514.203.11.134.154.743.127 1.782l-.041 1.58zm26.857.036c-1.374 0-1.405-.008-1.637-.4-.13-.22-2.693-4.748-5.696-10.062-3.004-5.315-5.428-9.717-5.387-9.782.04-.066.904-.119 1.92-.118 1.015.001 1.917.05 2.004.11.088.058.784 1.22 1.548 2.58s2.644 4.697 4.178 7.417c1.535 2.72 2.877 5.035 2.984 5.145.164.168.252.11.556-.364.199-.31 2.112-3.672 4.251-7.472 2.14-3.8 3.99-7.023 4.112-7.163.19-.218.491-.255 2.081-.255 1.023 0 1.893.054 1.934.12.04.066-2.417 4.534-5.461 9.928-3.044 5.394-5.637 9.921-5.76 10.061-.186.21-.476.255-1.627.255z" fill="#0774b8"/></svg>