<svg xmlns="http://www.w3.org/2000/svg" viewBox="0 0 51.399 40.022"><path d="M555.66 371.374c-.509.042-.814-.026-1.254-.28-.324-.187-.694-.56-.836-.842-.14-.28-.255-.809-.255-1.177 0-.455.105-.823.327-1.15.18-.264.507-.614.727-.777.274-.203.623-.296 1.114-.296.533 0 .866.1 1.307.392l.592.392h14.675l3.77-3.819c2.075-2.1 4.109-4.195 4.52-4.656l.75-.838v-13.981l-1.189-1.263a375.424 375.424 0 0 0-4.465-4.57l-3.277-3.31h-16.68l-.443.327c-.33.244-.642.328-1.22.328-.558 0-.89-.085-1.18-.3a4.023 4.023 0 0 1-.68-.674c-.154-.206-.313-.668-.353-1.025-.05-.447.007-.82.182-1.189.14-.296.481-.71.758-.921.378-.289.67-.383 1.18-.381.452 0 .916.13 1.402.391l.726.39h17.522l3.754 3.818c2.064 2.1 4.455 4.547 5.312 5.438l1.56 1.62v16.558l-.327.443c-.18.243-2.586 2.743-5.347 5.555l-5.02 5.113h-8.048c-8.014 0-8.051.001-8.49.314-.249.177-.736.339-1.114.37zm-.188-1.411c.201 0 .485-.108.632-.24.146-.133.266-.424.266-.647 0-.254-.121-.49-.324-.632-.177-.125-.44-.227-.581-.227-.143 0-.39.131-.55.291-.16.16-.29.433-.29.607s.108.436.24.582a.935.935 0 0 0 .607.266zm-1.675-35.495c.146.002.391-.064.546-.147.193-.103.281-.305.281-.644 0-.271-.103-.596-.228-.722a.928.928 0 0 0-.572-.228.928.928 0 0 0-.571.228c-.126.126-.229.45-.229.72 0 .315.092.545.255.64.14.081.373.15.518.153zm-5.718 31.062c-.12.03-.468-.034-.773-.143-.306-.108-.689-.317-.852-.465a2.797 2.797 0 0 1-.5-.66c-.111-.217-.202-.715-.202-1.107 0-.5.097-.856.327-1.192.18-.264.556-.605.836-.758.367-.2.704-.261 1.21-.217.405.035.877.192 1.12.373.422.31.43.311 10.509.311h10.087l2.719-2.832 2.719-2.832v-9.374l-2.795-2.808-2.795-2.809h-19.576l-.603.437c-.485.351-.749.436-1.359.436-.544 0-.895-.092-1.25-.33a2.608 2.608 0 0 1-.75-.836 2.831 2.831 0 0 1-.254-1.066c0-.308.106-.784.236-1.058s.43-.636.668-.805c.237-.169.71-.339 1.051-.377.436-.05.826.021 1.314.237.687.304.823.308 11.235.308h10.54l.766.763c.422.42 2.053 2.081 3.624 3.69l2.857 2.927v6.02l-.001 6.018-3.575 3.673-3.576 3.672h-10.62c-10.136 0-10.637.013-11.006.272-.212.15-.55.319-.75.375-.2.057-.461.128-.581.157zm-.178-1.385c.142 0 .404-.102.582-.227a.768.768 0 0 0 .323-.644c0-.23-.103-.52-.229-.646-.125-.126-.398-.229-.606-.229a1.11 1.11 0 0 0-.644.24.904.904 0 0 0-.266.583c0 .187.13.472.29.632.16.16.408.29.55.29zm.156-23.564c.136 0 .393-.102.571-.226a.782.782 0 0 0 .324-.592c0-.2-.068-.491-.151-.646-.104-.194-.305-.281-.646-.281-.348 0-.564.096-.723.323-.124.178-.226.398-.226.49 0 .09.136.338.302.549.165.21.413.383.549.383zm-7.682 18.906c-.203-.002-.646-.129-.984-.283-.355-.16-.74-.482-.909-.76a3.426 3.426 0 0 1-.38-.944c-.049-.255-.013-.693.08-.973.092-.28.296-.672.452-.87.156-.2.575-.473.931-.61.42-.16.822-.213 1.147-.152.275.051.745.288 1.044.526l.545.433h3.252c2.534 0 3.253-.041 3.253-.185 0-.102-.59-.773-1.312-1.491l-1.312-1.306-4.588-.044-4.588-.044-.948.461c-.738.36-1.072.445-1.511.387a2.68 2.68 0 0 1-1.009-.393 2.657 2.657 0 0 1-.687-.779c-.133-.253-.243-.757-.244-1.118 0-.393.111-.85.28-1.138.156-.264.507-.618.781-.788.325-.202.74-.31 1.189-.31.511 0 .835.102 1.254.392l.565.392h10.812l2.936 2.982 2.936 2.982h13.97l1.066-1.065 1.065-1.065v-4.656l-1.149-1.118-1.149-1.118-6.148.038c-4.618.029-6.163.082-6.206.212-.032.096.519.767 1.224 1.491l1.282 1.317h2.814c2.591 0 2.842-.023 3.182-.29.203-.16.623-.359.932-.442a2.054 2.054 0 0 1 1.115-.003c.304.081.726.33.937.55.21.222.453.587.538.812.085.226.155.658.155.96 0 .333-.13.743-.327 1.032-.18.265-.512.618-.738.786-.297.22-.627.304-1.188.304-.603 0-.886-.082-1.262-.364-.483-.361-.504-.364-3.976-.398l-3.49-.035-2.864-2.947-2.862-2.947h-7.657l-.485.364c-.376.282-.659.363-1.262.363-.558 0-.89-.084-1.179-.3a4.051 4.051 0 0 1-.685-.68c-.156-.209-.311-.696-.344-1.082-.042-.489.019-.855.202-1.208.144-.278.482-.653.751-.832.27-.18.71-.368.98-.42.38-.07.707.012 1.43.36l.938.453h25.727l1.827 1.885 1.826 1.885.049 3.388c.034 2.34-.003 3.523-.12 3.824-.094.24-.946 1.204-1.894 2.143l-1.724 1.706-13.382.04-13.382.038-.576.328c-.317.18-.743.325-.946.324zm.056-1.48c.302-.03.508-.169.661-.444.2-.36.2-.441 0-.8-.144-.26-.366-.417-.63-.447a.933.933 0 0 0-.687.204.956.956 0 0 0-.278.618c0 .2.111.488.247.639.162.178.4.258.687.23zm-5.574-5.79c.254 0 .49-.12.632-.323.124-.178.226-.44.226-.582 0-.142-.13-.39-.29-.55-.16-.16-.434-.29-.607-.29-.174 0-.436.108-.582.24a.935.935 0 0 0-.266.607c0 .202.108.486.24.632.133.147.424.266.647.266zm29.951 0c.267 0 .5-.116.644-.323.125-.178.227-.44.227-.582 0-.142-.131-.39-.291-.55-.16-.16-.433-.29-.607-.29-.173 0-.435.108-.582.24-.146.133-.266.423-.266.645 0 .222.103.506.229.632s.417.228.646.228zm-23.93-5.963c.17 0 .413-.082.54-.182.127-.1.272-.319.321-.486.058-.196-.018-.442-.214-.691-.175-.223-.449-.387-.646-.387-.198 0-.471.164-.647.387-.196.249-.272.495-.214.69.05.168.194.387.321.487.128.1.37.182.54.182z" style="fill:#fff;stroke-width:.145455" transform="translate(-532.607 -331.364)"/></svg>