<?xml version="1.0" encoding="UTF-8" standalone="no"?>
<!DOCTYPE svg PUBLIC "-//W3C//DTD SVG 1.1//EN" "http://www.w3.org/Graphics/SVG/1.1/DTD/svg11.dtd">
<svg width="100%" height="100%" viewBox="0 0 40 40" version="1.1" xmlns="http://www.w3.org/2000/svg" xmlns:xlink="http://www.w3.org/1999/xlink" xml:space="preserve" xmlns:serif="http://www.serif.com/" style="fill-rule:evenodd;clip-rule:evenodd;stroke-linejoin:round;stroke-miterlimit:2;">
    <g transform="matrix(0.0696961,0,0,0.0696961,-18.0569,-15.6741)">
        <path d="M827.3,461.5C825.7,460.2 811.2,449.3 780.6,449.3C772.5,449.3 764.4,449.9 756.4,451.4C750.5,410.7 716.9,390.9 715.4,390L707.2,385.2L701.8,393C695,403.5 690.1,415 687.2,427.2C681.7,450.4 685,472.2 696.8,490.8C682.6,498.7 659.7,500.7 655.1,500.8L277,500.8C267.1,500.8 259.1,508.8 259.1,518.7C258.7,551.8 264.3,584.7 275.6,615.8C288.6,650 308,675.1 333.2,690.5C361.4,707.8 407.3,717.7 459.4,717.7C482.9,717.8 506.4,715.6 529.5,711.3C561.6,705.4 592.5,694.2 620.9,678.1C644.3,664.5 665.4,647.3 683.3,627C713.2,593.1 731.1,555.3 744.4,521.8L749.7,521.8C782.5,521.8 802.7,508.7 813.8,497.7C821.2,490.7 827,482.2 830.7,472.7L833,465.8L827.3,461.5ZM312,489.9L362.7,489.9C365.1,489.9 367.1,487.9 367.1,485.5L367.1,440.4C367.1,438 365.1,436 362.7,435.9L312,435.9C309.6,435.9 307.6,437.9 307.6,440.3L307.6,485.5C307.6,488 309.6,489.9 312,489.9M381.9,489.9L432.6,489.9C435,489.9 437,487.9 437,485.5L437,440.4C437,438 435,436 432.6,435.9L381.9,435.9C379.4,435.9 377.4,437.9 377.4,440.4L377.4,485.5C377.4,488 379.4,489.9 381.9,489.9M452.7,490L503.4,490C505.8,490 507.8,488 507.8,485.6L507.8,440.5C507.8,438.1 505.8,436.1 503.4,436L452.7,436C450.3,436 448.3,438 448.3,440.4L448.3,485.6C448.3,488 450.3,489.9 452.7,490M522.8,490L573.5,490C575.9,490 577.9,488 578,485.6L578,440.5C578,438 576,436 573.5,436L522.8,436C520.4,436 518.4,438 518.4,440.4L518.4,485.6C518.4,488 520.3,490 522.8,490M381.8,425L432.5,425C434.9,425 436.9,423 436.9,420.5L436.9,375.4C436.9,373 434.9,371 432.5,371L381.8,371C379.3,371 377.4,373 377.3,375.4L377.3,420.5C377.4,423 379.4,425 381.8,425M452.7,425L503.4,425C505.8,425 507.8,423 507.8,420.5L507.8,375.4C507.8,373 505.8,371 503.4,371L452.7,371C450.3,371 448.3,373 448.3,375.4L448.3,420.5C448.3,423 450.3,425 452.7,425M522.8,425L573.5,425C576,425 577.9,423 578,420.5L578,375.4C578,372.9 576,371 573.5,371L522.8,371C520.4,371 518.4,373 518.4,375.4L518.4,420.5C518.4,423 520.3,425 522.8,425M522.8,360.1L573.5,360.1C576,360.1 578,358.1 578,355.6L578,310.4C578,308 576,306 573.5,306L522.8,306C520.4,306 518.4,308 518.4,310.4L518.4,355.6C518.4,358.1 520.3,360.1 522.8,360.1M593.4,490L644.1,490C646.5,490 648.5,488 648.5,485.6L648.5,440.5C648.5,438 646.5,436.1 644.1,436L593.4,436C591,436 589,438 589,440.4L589,485.6C589,488 591,490 593.4,490" style="fill:rgb(0,145,226);fill-rule:nonzero;"/>
    </g>
</svg>
