<?xml version="1.0" encoding="UTF-8" standalone="no"?>
<!DOCTYPE svg PUBLIC "-//W3C//DTD SVG 1.1//EN" "http://www.w3.org/Graphics/SVG/1.1/DTD/svg11.dtd">
<svg width="100%" height="100%" viewBox="0 0 40 40" version="1.1" xmlns="http://www.w3.org/2000/svg" xmlns:xlink="http://www.w3.org/1999/xlink" xml:space="preserve" xmlns:serif="http://www.serif.com/" style="fill-rule:evenodd;clip-rule:evenodd;stroke-linejoin:round;stroke-miterlimit:2;">
    <g transform="matrix(1,0,0,1,-114.226,-64.9599)">
        <g id="gatsby-logo" transform="matrix(0.429445,0,0,1.01747,65.3807,1.89869)">
            <rect x="113.74" y="61.978" width="91.415" height="38.642" style="fill:none;"/>
            <g transform="matrix(0.352853,0,0,0.148928,114.085,62.3214)">
                <path d="M128,0C57.308,0 0,57.307 0,128C0,198.693 57.308,256 128,256C198.693,256 256,198.693 256,128C256,57.307 198.693,0 128,0ZM27.504,129.334L126.665,228.496C72.214,227.786 28.213,183.785 27.504,129.334ZM150.496,225.983L30.017,105.504C40.233,60.823 80.222,27.487 128,27.487C161.397,27.487 190.985,43.78 209.263,68.846L195.346,81.126C180.52,59.864 155.887,45.949 128,45.949C92.495,45.949 62.26,68.501 50.831,100.062L155.939,205.169C181.464,195.926 201.095,174.379 207.67,147.692L164.103,147.692L164.103,128L210.051,128L210.051,128L228.513,128L228.513,128C228.513,175.778 195.177,215.767 150.496,225.983Z" style="fill:rgb(116,76,158);fill-rule:nonzero;"/>
            </g>
        </g>
    </g>
</svg>
