<svg xmlns="http://www.w3.org/2000/svg" xml:space="preserve" style="clip-rule:evenodd;fill-rule:evenodd;stroke-linejoin:round;stroke-miterlimit:2" viewBox="0 0 38.792 38.792"><g style="fill:#fff"><path d="M128 0C57.308 0 0 57.307 0 128s57.308 128 128 128c70.693 0 128-57.307 128-128S198.693 0 128 0ZM27.504 129.334l99.161 99.162c-54.451-.71-98.452-44.711-99.161-99.162Zm122.992 96.649L30.017 105.504C40.233 60.823 80.222 27.487 128 27.487c33.397 0 62.985 16.293 81.263 41.359l-13.917 12.28C180.52 59.864 155.887 45.949 128 45.949c-35.505 0-65.74 22.552-77.169 54.113l105.108 105.107c25.525-9.243 45.156-30.79 51.731-57.477h-43.567V128h64.41c0 47.778-33.336 87.767-78.017 97.983z" style="fill:#fff;fill-rule:nonzero" transform="scale(.15153)"/></g></svg>