<svg xmlns="http://www.w3.org/2000/svg" xml:space="preserve" style="fill-rule:evenodd;clip-rule:evenodd;stroke-linejoin:round;stroke-miterlimit:2" viewBox="0 0 40 40"><g style="fill:#fff"><path d="M111.78 51.977 62.035 2.238a7.335 7.335 0 0 0-10.374 0l-10.329 10.33L54.434 25.67c3.046-1.028 6.537-.339 8.964 2.089a8.721 8.721 0 0 1 2.07 9.019l12.628 12.628c3.055-1.053 6.58-.373 9.019 2.071a8.726 8.726 0 0 1 0 12.345 8.729 8.729 0 0 1-12.349 0 8.734 8.734 0 0 1-1.9-9.494L61.089 42.551l-.001 30.991a8.805 8.805 0 0 1 2.309 1.651c3.41 3.409 3.41 8.933 0 12.348-3.41 3.409-8.938 3.409-12.345 0-3.41-3.415-3.41-8.939 0-12.348a8.743 8.743 0 0 1 2.859-1.905V42.009a8.614 8.614 0 0 1-2.859-1.905c-2.583-2.581-3.205-6.372-1.881-9.544L36.255 17.642 2.149 51.747a7.34 7.34 0 0 0 0 10.378l49.742 49.739a7.337 7.337 0 0 0 10.376 0l49.512-49.504a7.341 7.341 0 0 0 0-10.379" style="fill:#fff;fill-rule:nonzero" transform="translate(0 -.03) scale(.3511)"/></g></svg>