<svg xmlns="http://www.w3.org/2000/svg" xml:space="preserve" id="svg564" style="enable-background:new 0 0 240 234" version="1.1" viewBox="0 0 240 234"><style id="style554" type="text/css">.st1{fill:#f36}</style><path id="path556" d="M42.5 0C19 0 0 19 0 42.5v149C0 215 19 234 42.5 234h155c23.5 0 42.5-19 42.5-42.5v-149C240 19 221 0 197.5 0h-155zm113.3 51.3h20.3c.5-.1.9.3 1 .7v95.4c0 1.8.1 3.8.2 6 .2 2.1.3 4.1.4 5.8 0 .7-.3 1.3-1 1.6-5.2 2.2-10.7 3.8-16.3 4.8-5 .9-10.2 1.4-15.4 1.4-7.4.1-14.8-1.4-21.5-4.5-6.3-2.9-11.5-7.7-15.1-13.6-3.7-6.1-5.5-13.7-5.5-22.8-.1-7.4 1.8-14.7 5.5-21.1 3.8-6.5 9.3-11.9 15.9-15.5 7-3.9 15.4-5.8 25.3-5.8.5 0 1.2 0 2.1.1.9.1 1.9.1 3.1.2V52.4c0-.7.3-1.1 1-1.1zm-89.5 8.6h19.5c.6-.1 1.2.3 1.3 1 .1.1.1.2.1.3v103c0 1.1-.5 1.6-1.4 1.6H66.2c-.9 0-1.3-.5-1.3-1.6v-103c0-.9.5-1.3 1.4-1.3zm82.5 42.4c-3.9 0-7.8.8-11.3 2.6-3.4 1.7-6.3 4.2-8.5 7.4s-3.3 7.5-3.3 12.7c-.1 3.5.5 7 1.7 10.3 1 2.7 2.5 5.1 4.5 7.1 1.9 1.8 4.2 3.2 6.8 4 2.7.9 5.5 1.3 8.3 1.3 1.5 0 2.9-.1 4.2-.2 1.3.1 2.5-.1 3.6-.5v-44c-.9-.2-1.8-.4-2.7-.5-1.1-.1-2.2-.2-3.3-.2z" style="fill:#fff"/></svg>