<?xml version="1.0" encoding="UTF-8" standalone="no"?>
<svg
   style="enable-background:new 0 0 240 234"
   version="1.1"
   viewBox="0 0 240 234"
   xml:space="preserve"
   id="svg564"
   sodipodi:docname="Adobe InDesign CC logo_weiss.svg"
   inkscape:version="1.2.1 (ef4d3fba62, 2022-07-19, custom)"
   xmlns:inkscape="http://www.inkscape.org/namespaces/inkscape"
   xmlns:sodipodi="http://sodipodi.sourceforge.net/DTD/sodipodi-0.dtd"
   xmlns="http://www.w3.org/2000/svg"
   xmlns:svg="http://www.w3.org/2000/svg"
   xmlns:rdf="http://www.w3.org/1999/02/22-rdf-syntax-ns#"
   xmlns:cc="http://creativecommons.org/ns#"
   xmlns:dc="http://purl.org/dc/elements/1.1/"><defs
   id="defs568">
		
	
			
			
		</defs><sodipodi:namedview
   id="namedview566"
   pagecolor="#505050"
   bordercolor="#eeeeee"
   borderopacity="1"
   inkscape:showpageshadow="0"
   inkscape:pageopacity="0"
   inkscape:pagecheckerboard="0"
   inkscape:deskcolor="#505050"
   showgrid="false"
   inkscape:zoom="3.3717949"
   inkscape:cx="120.26236"
   inkscape:cy="117.14829"
   inkscape:window-width="1920"
   inkscape:window-height="1016"
   inkscape:window-x="0"
   inkscape:window-y="0"
   inkscape:window-maximized="1"
   inkscape:current-layer="svg564" />
<title
   id="title552">Adobe InDesign CC logo</title>
<style
   type="text/css"
   id="style554">
	.st0{fill:#49021F;}
	.st1{fill:#FF3366;}
</style>
	<path
   id="path556"
   class="st0"
   d="M 42.5 0 C 19.000047 0 0 19.000047 0 42.5 L 0 191.5 C 0 214.99996 19.000047 234 42.5 234 L 197.5 234 C 220.99996 234 240 214.99996 240 191.5 L 240 42.5 C 240 19.000047 220.99996 0 197.5 0 L 42.5 0 z M 155.80078 51.300781 L 176.09961 51.300781 C 176.59961 51.200781 176.99961 51.6 177.09961 52 L 177.09961 52.199219 L 177.09961 147.40039 C 177.09961 149.20039 177.20078 151.20039 177.30078 153.40039 C 177.50078 155.50039 177.59922 157.49922 177.69922 159.19922 C 177.69922 159.89922 177.39922 160.50078 176.69922 160.80078 C 171.49922 163.00078 166.00039 164.59961 160.40039 165.59961 C 155.4004 166.49961 150.19999 167 145 167 C 137.60001 167.1 130.19999 165.6 123.5 162.5 C 117.20001 159.6 112.00039 154.80038 108.40039 148.90039 C 104.70039 142.8004 102.90039 135.1996 102.90039 126.09961 C 102.80039 118.69962 104.70039 111.39999 108.40039 105 C 112.20039 98.500006 117.70079 93.099996 124.30078 89.5 C 131.30077 85.600004 139.69962 83.699219 149.59961 83.699219 C 150.09961 83.699219 150.79922 83.700781 151.69922 83.800781 C 152.59922 83.900781 153.60078 83.9 154.80078 84 L 154.80078 52.400391 C 154.80078 51.700391 155.10078 51.300781 155.80078 51.300781 z M 66.300781 59.900391 L 85.800781 59.900391 C 86.400781 59.800391 86.999609 60.200391 87.099609 60.900391 C 87.199609 61.000391 87.199219 61.099219 87.199219 61.199219 L 87.199219 164.19922 C 87.199219 165.29922 86.700779 165.80078 85.800781 165.80078 L 66.199219 165.80078 C 65.299221 165.80078 64.900391 165.29922 64.900391 164.19922 L 64.900391 61.199219 C 64.900391 60.299221 65.400783 59.900391 66.300781 59.900391 z M 148.80078 102.30078 C 144.90079 102.30078 141 103.10039 137.5 104.90039 C 134.1 106.60039 131.2 109.10078 129 112.30078 C 126.8 115.50078 125.69922 119.80001 125.69922 125 C 125.59922 128.5 126.20039 132.00078 127.40039 135.30078 C 128.40039 138.00078 129.90039 140.40039 131.90039 142.40039 C 133.80039 144.20039 136.09922 145.60039 138.69922 146.40039 C 141.39922 147.30039 144.2 147.69922 147 147.69922 C 148.5 147.69922 149.89922 147.6 151.19922 147.5 C 152.49922 147.6 153.70078 147.4 154.80078 147 L 154.80078 103 C 153.90078 102.8 152.99961 102.6 152.09961 102.5 C 150.99961 102.4 149.90078 102.30078 148.80078 102.30078 z "
   style="fill:#ffffff" />
	

<metadata
   id="metadata570"><rdf:RDF><cc:Work
       rdf:about=""><dc:title>Adobe InDesign CC logo</dc:title></cc:Work></rdf:RDF></metadata></svg>
