<svg xmlns="http://www.w3.org/2000/svg" viewBox="0 0 39.26 38.743"><path d="M554.163 332.296c-1.214-.003-2.416.438-3.287 1.33l-14.492 14.83c-4.897 6.064 3.334 5.359 6.861 7.105 1.266 1.294-4.851 2.249-3.586 3.543 1.266 1.294 7.653 2.492 8.92 3.785 1.266 1.294-2.59 2.666-1.324 3.96 1.266 1.293 4.192.068 4.74 3.054.39 2.134 5.274.918 7.662-.83 1.266-1.295-2.421-1.173-1.156-2.467 3.147-3.218 6.078-1.17 7.154-4.394.532-1.594-4.632-2.457-3.365-3.75 3.641-2.127 16.225-3.51 10.254-9.48l-15.021-15.356c-.919-.882-2.146-1.328-3.36-1.33zm.131 1.412c.867.004 1.73.329 2.352.959l5.734 5.822c.544.555.537 1.632.232 1.941l-2.847-2.277-.559 3.373-2.379-1.256-3.81 2.406-1.26-5.072-2.047 3.54h-3.129c-1.275 0-1.424-1.618-.265-2.776 2.023-2.185 4.345-4.411 5.607-5.701.634-.649 1.504-.964 2.371-.96zm-6.885 22.656c.388.24 6.245 1.43 7.676 1.668.496.105.145.616-.539.96-1.543.41-9.025-2.628-7.137-2.628zm22.776 4.076c-1.179.04-2.34.643-2.66 1.772 0 .735 5.42 1.217 5.42-.174-.387-1.118-1.582-1.639-2.76-1.598zm-25.076 3.191c-1.643.088-3.406 1.277-2.004 2.49 1.283 1.11 3.267-.274 3.861-1.823-.389-.517-1.11-.706-1.857-.667zm21.736.092c-1.655 1.485.185 2.99 1.816 2.032.364-.37-.01-1.663-1.816-2.032z" style="fill:#fff;fill-opacity:1;stroke-width:.107882" transform="translate(-534.868 -332.296)"/></svg>