<?xml version="1.0" encoding="UTF-8" standalone="no"?>
<!DOCTYPE svg PUBLIC "-//W3C//DTD SVG 1.1//EN" "http://www.w3.org/Graphics/SVG/1.1/DTD/svg11.dtd">
<svg width="100%" height="100%" viewBox="0 0 182 50" version="1.1" xmlns="http://www.w3.org/2000/svg" xmlns:xlink="http://www.w3.org/1999/xlink" xml:space="preserve" xmlns:serif="http://www.serif.com/" style="fill-rule:evenodd;clip-rule:evenodd;stroke-linejoin:round;stroke-miterlimit:2;">
    <g transform="matrix(1,0,0,1,-333.606,0)">
        <g id="joomla-logo" transform="matrix(2.49261,0,0,0.60241,167.064,0.0955111)">
            <rect x="66.815" y="-0.159" width="73" height="83" style="fill:none;"/>
            <g transform="matrix(0.34762,0,0,1.43836,-115.778,4.83585)">
                <g transform="matrix(0.555684,0,0,0.555684,504.75,-17.2678)">
                    <path d="M154,52.3L154,83.6C154,86.4 154.2,89 151.7,90.9C149.4,92.8 145.5,93.4 141.3,93.4C134.9,93.4 128.1,91.9 128.1,91.9L126.6,95.9C126.6,95.9 136.1,97.9 143,98C148.8,98.1 153.9,96.8 156.7,93.6C159,91 159.7,88 159.6,82.9L159.6,52.3L154,52.3" style="fill:rgb(59,58,64);fill-rule:nonzero;"/>
                </g>
                <g transform="matrix(0.555684,0,0,0.555684,504.75,-17.2678)">
                    <path d="M200.7,69.6C196.5,67.3 191.4,66.1 185.6,66.1C179.9,66.1 174.8,67.3 170.5,69.6C165.1,72.5 162.4,76.8 162.4,82.2C162.4,87.6 165.1,91.9 170.5,94.8C174.8,97.1 179.8,98.3 185.6,98.3C191.3,98.3 196.4,97.1 200.6,94.8C206,91.9 208.7,87.6 208.7,82.2C208.7,76.7 206,72.5 200.7,69.6M197.4,91.6C194.1,93.5 190.2,94.4 185.6,94.4C180.9,94.4 176.9,93.5 173.7,91.7C169.8,89.5 167.9,86.4 167.9,82.2C167.9,78.1 169.9,74.9 173.7,72.7C176.9,70.9 180.9,70 185.6,70C190.2,70 194.2,70.9 197.5,72.7C201.3,74.9 203.3,78.1 203.3,82.2C203.2,86.2 201.3,89.4 197.4,91.6Z" style="fill:rgb(59,58,64);fill-rule:nonzero;"/>
                </g>
                <g transform="matrix(0.555684,0,0,0.555684,504.75,-17.2678)">
                    <path d="M249.9,69.6C245.7,67.3 240.6,66.1 234.8,66.1C229.1,66.1 224,67.3 219.7,69.6C214.3,72.5 211.6,76.8 211.6,82.2C211.6,87.6 214.3,91.9 219.7,94.8C224,97.1 229,98.3 234.8,98.3C240.5,98.3 245.6,97.1 249.8,94.8C255.2,91.9 257.9,87.6 257.9,82.2C257.9,76.7 255.2,72.5 249.9,69.6M246.6,91.6C243.3,93.5 239.4,94.4 234.8,94.4C230.1,94.4 226.1,93.5 222.9,91.7C219,89.5 217.1,86.4 217.1,82.2C217.1,78.1 219.1,74.9 222.9,72.7C226.1,70.9 230.1,70 234.8,70C239.4,70 243.4,70.9 246.7,72.7C250.5,74.9 252.5,78.1 252.5,82.2C252.4,86.2 250.5,89.4 246.6,91.6Z" style="fill:rgb(59,58,64);fill-rule:nonzero;"/>
                </g>
                <g transform="matrix(0.555684,0,0,0.555684,504.75,-17.2678)">
                    <path d="M317.8,68.8C314.8,67 310.9,66.1 306.3,66.1C300.4,66.1 295.7,67.9 292.1,71.5C288.7,67.9 283.9,66.1 278,66.1C273.2,66.1 269.3,67.1 266.3,69L266.3,66.5L261,66.5L261,97.6L266.3,97.6L266.3,76.4C266.7,74.9 267.7,73.5 269.3,72.3C271.5,70.8 274.3,70 277.8,70C280.9,70 283.5,70.6 285.7,71.9C288.3,73.4 289.5,75.4 289.5,78.2L289.5,97.8L294.7,97.8L294.7,78.1C294.7,75.3 295.9,73.3 298.5,71.8C300.7,70.6 303.4,69.9 306.5,69.9C309.6,69.9 312.3,70.5 314.5,71.8C317.1,73.3 318.3,75.3 318.3,78.1L318.3,97.7L323.6,97.7L323.6,78.8C323.5,74.4 321.5,71 317.8,68.8" style="fill:rgb(59,58,64);fill-rule:nonzero;"/>
                </g>
                <g transform="matrix(0.555684,0,0,0.555684,504.75,-17.2678)">
                    <path d="M327.7,52.3L327.7,97.7L333,97.7L333,52.3L327.7,52.3" style="fill:rgb(59,58,64);fill-rule:nonzero;"/>
                </g>
                <g transform="matrix(0.555684,0,0,0.555684,504.75,-17.2678)">
                    <path d="M392.1,52.3L392.1,87.4L397.4,87.4L397.4,52.3L392.1,52.3" style="fill:rgb(59,58,64);fill-rule:nonzero;"/>
                </g>
                <g transform="matrix(0.555684,0,0,0.555684,504.75,-17.2678)">
                    <path d="M378.2,66.5L378.2,71.8C373.7,68 367.7,66 360.3,66C354.4,66 349.3,67.1 345.1,69.4C339.9,72.3 337.2,76.5 337.2,82.1C337.2,87.6 339.9,91.9 345.3,94.7C349.5,97 354.6,98.1 360.5,98.1C363.4,98.1 366.3,97.8 368.9,97.1C372.6,96.1 375.7,94.7 378.1,92.8L378.1,97.6L383.4,97.6L383.4,66.5L378.2,66.5M342.8,82.2C342.8,78.1 344.8,74.9 348.6,72.7C351.8,70.9 355.9,70 360.6,70C366.4,70 370.9,71.4 374.1,74.2C376.9,76.7 378.3,79.9 378.3,83.8L378.3,87.5C376.1,90 372.8,91.9 368.6,93.2C366.1,94 363.4,94.4 360.6,94.4C355.8,94.4 351.8,93.5 348.6,91.8C344.7,89.5 342.8,86.4 342.8,82.2Z" style="fill:rgb(59,58,64);fill-rule:nonzero;"/>
                </g>
                <g transform="matrix(0.555684,0,0,0.555684,504.75,-17.2678)">
                    <path d="M394.8,91.8C391.1,91.8 390.6,93.7 390.6,94.9C390.6,96.1 391.2,98 394.8,98C398.5,98 399,96 399,94.9C399,93.8 398.4,91.8 394.8,91.8Z" style="fill:rgb(59,58,64);fill-rule:nonzero;"/>
                </g>
                <g transform="matrix(0.555684,0,0,0.555684,504.75,-17.2678)">
                    <path d="M413.8,57.9C413.8,61 411.8,63.6 408.2,63.6C404.6,63.6 402.6,61 402.6,57.9C402.6,54.8 404.6,52.2 408.2,52.2C411.8,52.2 413.8,54.8 413.8,57.9ZM403.8,57.9C403.8,60.5 405.4,62.5 408.2,62.5C411,62.5 412.6,60.5 412.6,57.9C412.6,55.3 411,53.3 408.2,53.3C405.4,53.3 403.8,55.3 403.8,57.9ZM409.3,58.6C411.5,58.2 411.3,54.9 408.8,54.9L406.1,54.9L406.1,60.7L407.2,60.7L407.2,58.7L408.2,58.7L409.8,60.7L411,60.7L411,60.5L409.3,58.6ZM408.8,55.9C410.1,55.9 410.1,57.8 408.8,57.8L407.2,57.8L407.2,55.9L408.8,55.9Z" style="fill:rgb(59,58,64);fill-rule:nonzero;"/>
                </g>
                <g id="j-green" transform="matrix(0.555684,0,0,0.555684,504.75,-17.2678)">
                    <path d="M51,75.2L49.6,73.8C45.1,69.3 43.8,63 45.4,57.3C40.9,56.3 37.6,52.3 37.6,47.5C37.6,42 42.1,37.5 47.6,37.5C52.6,37.5 56.7,41.1 57.5,45.9C62.9,44.6 68.8,46.1 73,50.3L73.6,50.9L66.2,58.3L65.6,57.7C63.2,55.3 59.3,55.3 56.9,57.7C54.5,60.1 54.5,64 56.9,66.4L73.5,83L66.1,90.4L58.3,82.6L51,75.2Z" style="fill:rgb(122,193,67);fill-rule:nonzero;"/>
                </g>
                <g id="j-orange" transform="matrix(0.555684,0,0,0.555684,504.75,-17.2678)">
                    <path d="M59.3,67L75.9,50.4C80.3,46 86.7,44.6 92.3,46.2C93,41.3 97.2,37.6 102.2,37.6C107.7,37.6 112.2,42.1 112.2,47.6C112.2,52.7 108.4,56.9 103.5,57.5C105.1,63.1 103.7,69.4 99.3,73.8L98.7,74.4L91.5,67L92.1,66.4C94.5,64 94.5,60.1 92.1,57.7C89.7,55.3 85.8,55.3 83.4,57.7L66.8,74.3L59.3,67Z" style="fill:rgb(249,165,65);fill-rule:nonzero;"/>
                </g>
                <g id="j-red" transform="matrix(0.555684,0,0,0.555684,504.75,-17.2678)">
                    <path d="M92.6,104.3C86.9,106 80.5,104.7 76,100.2L75.4,99.6L82.8,92.2L83.4,92.8C85.8,95.2 89.7,95.2 92.1,92.8C94.5,90.4 94.5,86.5 92.1,84.1L75.5,67.5L82.9,60.1L99.6,76.8C103.8,81 105.3,87 104,92.5C108.9,93.2 112.6,97.4 112.6,102.4C112.6,107.9 108.1,112.4 102.6,112.4C97.6,112.3 93.5,108.8 92.6,104.3Z" style="fill:rgb(244,67,33);fill-rule:nonzero;"/>
                </g>
                <g id="j-blue" transform="matrix(0.555684,0,0,0.555684,504.75,-17.2678)">
                    <path d="M89.7,83.5L73.1,100.1C68.8,104.4 62.8,105.8 57.4,104.5C56.4,109 52.4,112.3 47.6,112.3C42.1,112.3 37.6,107.8 37.6,102.3C37.6,97.6 40.9,93.6 45.3,92.6C43.9,87 45.3,81 49.6,76.7L50.2,76.1L57.6,83.5L57,84.1C54.6,86.5 54.6,90.4 57,92.8C59.4,95.2 63.3,95.2 65.7,92.8L82.3,76.2L89.7,83.5Z" style="fill:rgb(80,145,205);fill-rule:nonzero;"/>
                </g>
            </g>
        </g>
    </g>
</svg>
