<?xml version="1.0" encoding="UTF-8" standalone="no"?>
<svg
   width="36.111725"
   height="36.063633"
   viewBox="0 0 36.111725 36.063633"
   version="1.1"
   xml:space="preserve"
   style="clip-rule:evenodd;fill-rule:evenodd;stroke-linejoin:round;stroke-miterlimit:2"
   id="svg535"
   xmlns="http://www.w3.org/2000/svg"
   xmlns:svg="http://www.w3.org/2000/svg"><defs
   id="defs539">
        
    
            
            
        
                
                
                
                
                
                
                
                
                
                
                
                
                
            </defs>
    <g
   id="j-green"
   transform="matrix(0.48148968,0,0,0.48149043,-18.104012,-18.055891)"
   style="fill:#ffffff">
                    <path
   d="M 51,75.2 49.6,73.8 C 45.1,69.3 43.8,63 45.4,57.3 c -4.5,-1 -7.8,-5 -7.8,-9.8 0,-5.5 4.5,-10 10,-10 5,0 9.1,3.6 9.9,8.4 5.4,-1.3 11.3,0.2 15.5,4.4 l 0.6,0.6 -7.4,7.4 -0.6,-0.6 c -2.4,-2.4 -6.3,-2.4 -8.7,0 -2.4,2.4 -2.4,6.3 0,8.7 L 73.5,83 66.1,90.4 58.3,82.6 Z"
   style="fill:#ffffff;fill-rule:nonzero"
   id="path518" />
                </g><g
   id="j-orange"
   transform="matrix(0.48148968,0,0,0.48149043,-18.104012,-18.055891)"
   style="fill:#ffffff">
                    <path
   d="M 59.3,67 75.9,50.4 c 4.4,-4.4 10.8,-5.8 16.4,-4.2 0.7,-4.9 4.9,-8.6 9.9,-8.6 5.5,0 10,4.5 10,10 0,5.1 -3.8,9.3 -8.7,9.9 1.6,5.6 0.2,11.9 -4.2,16.3 l -0.6,0.6 -7.2,-7.4 0.6,-0.6 c 2.4,-2.4 2.4,-6.3 0,-8.7 -2.4,-2.4 -6.3,-2.4 -8.7,0 L 66.8,74.3 Z"
   style="fill:#ffffff;fill-rule:nonzero"
   id="path521" />
                </g><g
   id="j-red"
   transform="matrix(0.48148968,0,0,0.48149043,-18.104012,-18.055891)"
   style="fill:#ffffff">
                    <path
   d="M 92.6,104.3 C 86.9,106 80.5,104.7 76,100.2 l -0.6,-0.6 7.4,-7.4 0.6,0.6 c 2.4,2.4 6.3,2.4 8.7,0 2.4,-2.4 2.4,-6.3 0,-8.7 L 75.5,67.5 82.9,60.1 99.6,76.8 c 4.2,4.2 5.7,10.2 4.4,15.7 4.9,0.7 8.6,4.9 8.6,9.9 0,5.5 -4.5,10 -10,10 -5,-0.1 -9.1,-3.6 -10,-8.1 z"
   style="fill:#ffffff;fill-rule:nonzero"
   id="path524" />
                </g><g
   id="j-blue"
   transform="matrix(0.48148968,0,0,0.48149043,-18.104012,-18.055891)"
   style="fill:#ffffff">
                    <path
   d="m 89.7,83.5 -16.6,16.6 c -4.3,4.3 -10.3,5.7 -15.7,4.4 -1,4.5 -5,7.8 -9.8,7.8 -5.5,0 -10,-4.5 -10,-10 0,-4.7 3.3,-8.7 7.7,-9.7 -1.4,-5.6 0,-11.6 4.3,-15.9 l 0.6,-0.6 7.4,7.4 -0.6,0.6 c -2.4,2.4 -2.4,6.3 0,8.7 2.4,2.4 6.3,2.4 8.7,0 L 82.3,76.2 Z"
   style="fill:#ffffff;fill-rule:nonzero"
   id="path527" />
                </g>
</svg>
