<?xml version="1.0" encoding="UTF-8" standalone="no"?>
<!DOCTYPE svg PUBLIC "-//W3C//DTD SVG 1.1//EN" "http://www.w3.org/Graphics/SVG/1.1/DTD/svg11.dtd">
<svg width="100%" height="100%" viewBox="0 0 37 37" version="1.1" xmlns="http://www.w3.org/2000/svg" xmlns:xlink="http://www.w3.org/1999/xlink" xml:space="preserve" xmlns:serif="http://www.serif.com/" style="fill-rule:evenodd;clip-rule:evenodd;stroke-linejoin:round;stroke-miterlimit:2;">
    <g transform="matrix(0.866481,0,0,0.866482,-455.46,-3.05728)">
        <g>
            <g id="j-green" transform="matrix(0.555684,0,0,0.555684,504.75,-17.2678)">
                <path d="M51,75.2L49.6,73.8C45.1,69.3 43.8,63 45.4,57.3C40.9,56.3 37.6,52.3 37.6,47.5C37.6,42 42.1,37.5 47.6,37.5C52.6,37.5 56.7,41.1 57.5,45.9C62.9,44.6 68.8,46.1 73,50.3L73.6,50.9L66.2,58.3L65.6,57.7C63.2,55.3 59.3,55.3 56.9,57.7C54.5,60.1 54.5,64 56.9,66.4L73.5,83L66.1,90.4L58.3,82.6L51,75.2Z" style="fill:rgb(122,193,67);fill-rule:nonzero;"/>
            </g>
            <g id="j-orange" transform="matrix(0.555684,0,0,0.555684,504.75,-17.2678)">
                <path d="M59.3,67L75.9,50.4C80.3,46 86.7,44.6 92.3,46.2C93,41.3 97.2,37.6 102.2,37.6C107.7,37.6 112.2,42.1 112.2,47.6C112.2,52.7 108.4,56.9 103.5,57.5C105.1,63.1 103.7,69.4 99.3,73.8L98.7,74.4L91.5,67L92.1,66.4C94.5,64 94.5,60.1 92.1,57.7C89.7,55.3 85.8,55.3 83.4,57.7L66.8,74.3L59.3,67Z" style="fill:rgb(249,165,65);fill-rule:nonzero;"/>
            </g>
            <g id="j-red" transform="matrix(0.555684,0,0,0.555684,504.75,-17.2678)">
                <path d="M92.6,104.3C86.9,106 80.5,104.7 76,100.2L75.4,99.6L82.8,92.2L83.4,92.8C85.8,95.2 89.7,95.2 92.1,92.8C94.5,90.4 94.5,86.5 92.1,84.1L75.5,67.5L82.9,60.1L99.6,76.8C103.8,81 105.3,87 104,92.5C108.9,93.2 112.6,97.4 112.6,102.4C112.6,107.9 108.1,112.4 102.6,112.4C97.6,112.3 93.5,108.8 92.6,104.3Z" style="fill:rgb(244,67,33);fill-rule:nonzero;"/>
            </g>
            <g id="j-blue" transform="matrix(0.555684,0,0,0.555684,504.75,-17.2678)">
                <path d="M89.7,83.5L73.1,100.1C68.8,104.4 62.8,105.8 57.4,104.5C56.4,109 52.4,112.3 47.6,112.3C42.1,112.3 37.6,107.8 37.6,102.3C37.6,97.6 40.9,93.6 45.3,92.6C43.9,87 45.3,81 49.6,76.7L50.2,76.1L57.6,83.5L57,84.1C54.6,86.5 54.6,90.4 57,92.8C59.4,95.2 63.3,95.2 65.7,92.8L82.3,76.2L89.7,83.5Z" style="fill:rgb(80,145,205);fill-rule:nonzero;"/>
            </g>
        </g>
    </g>
</svg>
