<svg xmlns="http://www.w3.org/2000/svg" xml:space="preserve" viewBox="0 0 7.938 7.899"><path d="M45.255 65.66c-.288-.07-.542-.352-.567-.632l-.01-.101H52.616v.056a.858.858 0 0 1-.115.344.786.786 0 0 1-.493.342c-.063.013-1.033.018-3.372.017-2.784-.002-3.299-.005-3.381-.025zm-.056-3.2.005-2.202.046-.094a.552.552 0 0 1 .257-.25c.07-.033.11-.037.436-.042l.36-.005v.383h-.631l-.048.048-.049.048v3.84l.049.048.048.048h5.955l.048-.048.048-.048v-3.84l-.048-.048-.048-.048h-.631v-.382l.36.004c.327.005.366.009.436.041.11.05.219.157.264.258l.04.087.004 2.202.004 2.202H45.195zm.64-.194v-1.752h.464v3.504h-.463zm.728-.826V58.86h4.165v5.157h-4.165zm2.09 1.413v-.777l-.789-.004-.789-.005V63.638l.79-.004.789-.005zm-1.104.41a4.094 4.094 0 0 1-.01-.414c0-.333.003-.404.023-.411.024-.01.623.384.633.416.005.018-.585.42-.617.42a.046.046 0 0 1-.029-.011zm2.756.194c.055-.052.056-.122.002-.175l-.04-.041h-.591c-.584 0-.59 0-.629.036-.042.04-.051.122-.017.168a.159.159 0 0 0 .07.043c.027.009.3.014.606.012l.556-.003zm.002-.521c.05-.05.052-.118.005-.17l-.036-.037h-.6c-.579 0-.602 0-.634.033-.044.044-.043.128.003.176l.036.039h1.186zm-.027-.496c.08-.041.092-.135.027-.2l-.04-.04h-.586c-.567 0-.586 0-.628.034-.077.06-.055.184.039.218.013.005.276.01.583.01.46.002.567-.002.605-.022zm-.065-1.976v-1.09h-3.14v2.181h3.14zm-2.913.821.367-.562c.283-.432.359-.536.375-.52.01.012.06.086.11.164l.092.142-.263.4-.262.398h-.216c-.177 0-.214-.004-.203-.022zm.753-.015c.676-1.032.942-1.434.946-1.43.015.016.939 1.43.946 1.447.006.016-.192.02-.955.02h-.962Zm-.612-1.187a.231.231 0 0 1-.136-.225c0-.25.32-.347.458-.139a.28.28 0 0 1 .004.275.325.325 0 0 1-.216.123.331.331 0 0 1-.11-.034zm3.55 2.183v-1.752h.462v3.504h-.463zm-4.43-4.074v-.405h4.165v.81h-4.165zm.744.074c.043-.08-.019-.198-.105-.198-.134 0-.177.188-.055.24.06.025.135.005.16-.042zm.44.004c.056-.074-.01-.202-.104-.202-.13 0-.17.19-.05.24a.127.127 0 0 0 .154-.038zm.434.002c.046-.057.044-.114-.006-.163-.12-.12-.29.05-.178.178.04.047.143.038.184-.015z" style="fill:#fff;stroke-width:.0165269" transform="translate(-44.678 -57.787)"/></svg>