<?xml version="1.0" encoding="UTF-8" standalone="no"?>
<!-- Created with Inkscape (http://www.inkscape.org/) -->

<svg
   width="7.9375mm"
   height="7.8986011mm"
   viewBox="0 0 7.9375 7.8986011"
   version="1.1"
   id="svg5"
   xml:space="preserve"
   xmlns="http://www.w3.org/2000/svg"
   xmlns:svg="http://www.w3.org/2000/svg"><defs
     id="defs2" /><g
     id="layer1"
     transform="translate(-44.678355,-57.787102)"><path
       style="fill:#ffffff;stroke-width:0.0165269"
       d="m 45.254846,65.660627 c -0.28834,-0.06977 -0.541905,-0.352437 -0.567291,-0.632401 l -0.0092,-0.101506 h 3.96875 3.96875 v 0.0561 c 0,0.08181 -0.05739,0.254304 -0.114617,0.344494 -0.109112,0.171967 -0.293823,0.299724 -0.49356,0.341377 -0.06237,0.013 -1.032955,0.01787 -3.371486,0.01689 -2.783927,-0.0012 -3.298742,-0.005 -3.381342,-0.02495 z m -0.05568,-3.200546 0.0044,-2.202209 0.04594,-0.09355 c 0.05291,-0.107732 0.148132,-0.200543 0.257783,-0.251244 0.06924,-0.03201 0.110074,-0.03582 0.435854,-0.04061 l 0.35946,-0.0053 v 0.191215 0.191215 h -0.315282 -0.315282 l -0.04831,0.04831 -0.04831,0.04831 v 1.919662 1.919662 l 0.04831,0.04831 0.04831,0.04831 h 2.977383 2.977384 l 0.04831,-0.04831 0.04831,-0.04831 V 62.26588 60.346218 l -0.04831,-0.04831 -0.04831,-0.04831 h -0.315282 -0.315283 v -0.191215 -0.191215 l 0.35946,0.0053 c 0.327047,0.0048 0.366428,0.0085 0.436734,0.041 0.109213,0.05047 0.218109,0.156988 0.263787,0.258019 l 0.03906,0.08639 0.0044,2.202209 0.0044,2.202209 h -3.45459 -3.454593 z m 0.640653,-0.194191 v -1.75185 h 0.231377 0.231376 v 1.75185 1.751851 h -0.231376 -0.231377 z m 0.727184,-0.826344 V 58.86135 h 2.082388 2.082389 v 2.578196 2.578195 h -2.082389 -2.082388 z m 2.090652,1.413049 v -0.776764 l -0.789159,-0.0043 -0.789159,-0.0043 v 0.785348 0.785348 l 0.789159,-0.0043 0.789159,-0.0043 z m -1.104548,0.410418 c -0.0061,-0.0061 -0.01102,-0.192221 -0.01102,-0.413692 0,-0.333316 0.0041,-0.404229 0.02356,-0.411712 0.0246,-0.0094 0.6235,0.384448 0.633068,0.41636 0.0054,0.01816 -0.585008,0.420062 -0.617125,0.420062 -0.0096,0 -0.02242,-0.005 -0.02848,-0.01102 z m 2.755929,0.194064 c 0.05512,-0.05181 0.05594,-0.12165 0.0021,-0.175534 l -0.04057,-0.04057 h -0.590522 c -0.583557,0 -0.590974,4.37e-4 -0.628773,0.03593 -0.04267,0.04009 -0.05123,0.121799 -0.01757,0.167823 0.01137,0.01555 0.04298,0.03511 0.07024,0.04347 0.02726,0.0084 0.299975,0.01378 0.606036,0.01207 l 0.556474,-0.0031 z m 0.0021,-0.521096 c 0.05044,-0.05044 0.0523,-0.118347 0.0046,-0.169087 l -0.03594,-0.03825 h -0.600351 c -0.578314,0 -0.601563,0.0012 -0.633404,0.03305 -0.04422,0.04422 -0.04285,0.127917 0.0029,0.176599 l 0.03593,0.03825 h 0.592839 0.592838 z m -0.02672,-0.495947 c 0.07935,-0.04103 0.09187,-0.134542 0.02672,-0.199685 l -0.04057,-0.04057 h -0.585227 c -0.567033,0 -0.586581,0.0011 -0.628773,0.03425 -0.0763,0.06002 -0.05408,0.184194 0.03909,0.218452 0.01364,0.005 0.276162,0.0097 0.583394,0.01042 0.459818,0.0011 0.566873,-0.003 0.605361,-0.02287 z m -0.06493,-1.975575 v -1.090775 h -1.570057 -1.570054 v 1.090775 1.090775 h 1.570054 1.570055 z M 47.3058,61.285161 c 0.0073,-0.01219 0.172613,-0.265289 0.367432,-0.562437 0.282853,-0.431425 0.35828,-0.536001 0.374398,-0.519087 0.0111,0.01165 0.06109,0.08508 0.111077,0.163172 l 0.09089,0.14199 -0.262227,0.399266 -0.262227,0.399266 h -0.216281 c -0.176435,0 -0.213845,-0.0041 -0.203064,-0.02217 z m 0.752718,-0.01502 c 0.676701,-1.031995 0.942897,-1.434235 0.946557,-1.430314 0.01498,0.01604 0.93897,1.429954 0.945513,1.446841 0.0063,0.01638 -0.19119,0.02066 -0.954225,0.02066 H 48.0341 Z M 47.447469,60.0828 c -0.09176,-0.04542 -0.136751,-0.119517 -0.136751,-0.225211 0,-0.249577 0.319575,-0.346175 0.458292,-0.138528 0.04931,0.07382 0.05106,0.198989 0.0038,0.27539 -0.03603,0.05829 -0.149277,0.122952 -0.215313,0.12293 -0.02213,-7e-6 -0.07166,-0.01557 -0.110066,-0.03458 z m 3.548746,2.18309 v -1.75185 h 0.231377 0.231377 v 1.75185 1.751851 h -0.231377 -0.231377 z m -4.429207,-4.073879 v -0.404909 h 2.082388 2.082389 v 0.404909 0.404909 h -2.082389 -2.082388 z m 0.744059,0.07372 c 0.04313,-0.08059 -0.01894,-0.197671 -0.104794,-0.197671 -0.133859,0 -0.17738,0.188284 -0.05538,0.239582 0.05927,0.02492 0.135008,0.0051 0.160172,-0.04191 z m 0.439873,0.0041 c 0.05632,-0.07413 -0.0093,-0.201805 -0.103736,-0.201805 -0.130657,0 -0.169832,0.189232 -0.04964,0.23977 0.05682,0.02389 0.117858,0.0088 0.153374,-0.03796 z m 0.434504,0.0026 c 0.04544,-0.05777 0.04326,-0.114216 -0.0063,-0.163791 -0.120421,-0.120422 -0.290645,0.05017 -0.17803,0.178415 0.0408,0.04646 0.142648,0.03838 0.184343,-0.01462 z"
       id="path271" /></g></svg>
