<svg xmlns="http://www.w3.org/2000/svg" viewBox="0 0 31.941 42.187"><path d="M8.331 0 3.895 6.248V9.78l-3.86 1.836L0 11.6v23.043l15.05 7.11.92.434.92-.434 15.051-7.11V11.6l-.028.013-3.862-1.836V6.248l-.135-.19L23.615 0l-4.437 6.248v.006L15.95 1.708l-3.203 4.511-.114-.16Zm.785 3.63 1.716 2.416H5.831l1.696-2.388 1.59-.029Zm15.284 0 1.716 2.416h-5.002l1.696-2.388Zm-7.665 1.708 1.716 2.416h-5l1.695-2.388ZM5.356 7.264H7.73v7.987l-2.373-1.12Zm3.59 0h2.36v9.677l-2.36-1.115Zm11.694 0h2.372v8.554l-2.372 1.12zm3.59 0h2.36v6.864l-2.36 1.115ZM12.975 8.972h2.372v9.878l-2.372-1.12zm3.59 0h2.36v8.777l-2.36 1.115zm11.486 2.625 2.088.854-2.088.986v-1.84zM3.895 11.6v1.84l-2.088-.986ZM1.84 14.503l13.212 6.241V39.72L1.839 33.477V14.503Zm28.263 0v18.974L16.89 39.72V20.744Z" style="fill:#fff"/></svg>