<?xml version="1.0" encoding="UTF-8" standalone="no"?>
<svg
   width="34.07058"
   height="45"
   viewBox="0 0 31.941161 42.18747"
   version="1.1"
   id="svg159"
   xmlns="http://www.w3.org/2000/svg"
   xmlns:svg="http://www.w3.org/2000/svg">
  <defs
     id="defs155" />
  <path
     d="M 8.3313512,0 3.8951914,6.2483305 V 9.7801121 L 0.03487758,11.616307 0,11.599966 v 23.042616 l 15.050895,7.110758 0.919743,0.43414 0.919744,-0.43414 15.050773,-7.110758 V 11.599966 l -0.02829,0.01341 -3.861534,-1.8368044 V 6.2483305 L 27.916331,6.0582111 23.614926,0 19.1784,6.2483305 v 0.0061 L 15.950395,1.7080258 12.747145,6.2194284 12.632635,6.0582111 Z M 9.1163406,3.6294633 10.832171,6.0460161 H 5.8305312 L 7.5267279,3.6578775 9.1164625,3.6294633 Z m 15.2832084,0 1.716075,2.4165528 H 21.114228 L 22.809693,3.6578775 Z M 16.73514,5.337733 18.450971,7.7539199 H 13.450063 L 15.145528,5.3657814 Z M 5.3563912,7.2638046 H 7.7285544 V 15.251136 L 5.3563912,14.130419 Z m 3.5899517,0 H 11.306555 V 16.941235 L 8.9463429,15.826372 Z m 11.6937451,0 h 2.371919 V 15.81808 l -2.371919,1.120472 z m 3.589586,0 h 2.359968 V 14.127736 L 24.229674,15.2426 Z M 12.975435,8.9718303 h 2.372041 v 9.8784037 l -2.372041,-1.120717 z m 3.589952,0 h 2.359968 v 8.7768327 l -2.359968,1.115229 z m 11.485455,2.6250867 2.088508,0.853891 -2.088508,0.986572 v -1.840585 z m -24.1557725,0.003 v 1.840219 L 1.8070488,12.453613 Z M 1.8391216,14.503341 15.050773,20.744477 V 39.718611 L 1.8392435,33.477476 V 14.503341 Z m 28.2624244,0 V 33.477476 L 16.89026,39.718611 V 20.744477 Z"
     id="path157"
     style="fill:#ffffff" />
</svg>
