<?xml version="1.0" encoding="UTF-8" standalone="no"?>
<svg
   width="64.254967"
   height="48.344582"
   viewBox="0 0 64.254967 48.344582"
   version="1.1"
   xml:space="preserve"
   style="clip-rule:evenodd;fill-rule:evenodd;stroke-linejoin:round;stroke-miterlimit:2"
   id="svg433"
   sodipodi:docname="sass-logo_white.svg"
   inkscape:version="1.1.2 (b8e25be833, 2022-02-05)"
   xmlns:inkscape="http://www.inkscape.org/namespaces/inkscape"
   xmlns:sodipodi="http://sodipodi.sourceforge.net/DTD/sodipodi-0.dtd"
   xmlns="http://www.w3.org/2000/svg"
   xmlns:svg="http://www.w3.org/2000/svg"><defs
   id="defs437">
        
    
            
            
        </defs><sodipodi:namedview
   id="namedview435"
   pagecolor="#505050"
   bordercolor="#eeeeee"
   borderopacity="1"
   inkscape:pageshadow="0"
   inkscape:pageopacity="0"
   inkscape:pagecheckerboard="0"
   showgrid="false"
   fit-margin-top="0"
   fit-margin-left="0"
   fit-margin-right="0"
   fit-margin-bottom="0"
   inkscape:zoom="5.6427121"
   inkscape:cx="34.73507"
   inkscape:cy="12.671212"
   inkscape:window-width="1920"
   inkscape:window-height="970"
   inkscape:window-x="0"
   inkscape:window-y="27"
   inkscape:window-maximized="1"
   inkscape:current-layer="svg433" />
    <g
   transform="matrix(0.1173642,0,0,0.11774706,0.0030772,0.00310571)"
   id="g428"
   style="fill:#ffffff">
                <path
   d="m 471.4,236 c -19.1,0.1 -35.7,4.7 -49.6,11.5 -5.1,-10.1 -10.2,-19.1 -11.1,-25.7 -1,-7.7 -2.2,-12.4 -1,-21.6 1.2,-9.2 6.6,-22.3 6.5,-23.3 -0.1,-1 -1.2,-5.7 -12.2,-5.8 -11,-0.1 -20.5,2.1 -21.6,5 -1.1,2.9 -3.2,9.5 -4.6,16.3 -1.9,10 -22,45.7 -33.5,64.4 -3.7,-7.3 -6.9,-13.7 -7.6,-18.8 -1,-7.7 -2.2,-12.4 -1,-21.6 1.2,-9.2 6.6,-22.3 6.5,-23.3 -0.1,-1 -1.2,-5.7 -12.2,-5.8 -11,-0.1 -20.5,2.1 -21.6,5 -1.1,2.9 -2.3,9.7 -4.6,16.3 -2.3,6.6 -29,66.2 -36,81.6 -3.6,7.9 -6.7,14.2 -8.9,18.5 0,0 -0.1,0.3 -0.4,0.8 -1.9,3.7 -3,5.7 -3,5.7 v 0.1 c -1.5,2.7 -3.1,5.2 -3.9,5.2 -0.6,0 -1.7,-7.2 0.2,-17 4,-20.7 13.5,-52.9 13.4,-54 0,-0.6 1.8,-6.2 -6.2,-9.1 -7.8,-2.9 -10.6,1.9 -11.3,1.9 -0.7,0 -1.2,1.7 -1.2,1.7 0,0 8.7,-36.2 -16.6,-36.2 -15.8,0 -37.6,17.3 -48.4,32.9 -6.8,3.7 -21.3,11.6 -36.8,20.1 -5.9,3.3 -12,6.6 -17.7,9.7 -0.4,-0.4 -0.8,-0.9 -1.2,-1.3 C 95.2,236.5 38.6,213.4 41,169.5 c 0.9,-16 6.4,-58 108.7,-109 84.2,-41.5 151.2,-30 162.8,-4.5 16.6,36.4 -35.9,104 -122.9,113.8 -33.2,3.7 -50.6,-9.1 -55,-13.9 -4.6,-5 -5.3,-5.3 -7,-4.3 -2.8,1.5 -1,6 0,8.6 2.6,6.8 13.3,18.8 31.4,24.7 16,5.2 54.9,8.1 102,-10.1 C 313.7,154.4 354.9,97.7 342.8,50.2 330.7,2 250.7,-13.9 175,13 130,29 81.2,54.2 46.1,87 4.4,126 -2.2,159.9 0.5,174.1 c 9.7,50.4 79.2,83.2 107,107.5 -1.4,0.8 -2.7,1.5 -3.8,2.1 -13.9,6.9 -66.9,34.6 -80.1,63.9 -15,33.2 2.4,57 13.9,60.2 35.7,9.9 72.4,-7.9 92.1,-37.3 19.7,-29.4 17.3,-67.6 8.2,-85.1 -0.1,-0.2 -0.2,-0.4 -0.4,-0.6 3.6,-2.1 7.3,-4.3 10.9,-6.4 7.1,-4.2 14.1,-8.1 20.1,-11.3 -3.4,9.3 -5.9,20.4 -7.1,36.4 -1.5,18.8 6.2,43.2 16.3,52.8 4.5,4.2 9.8,4.3 13.2,4.3 11.8,0 17.1,-9.8 23,-21.4 7.2,-14.2 13.7,-30.7 13.7,-30.7 0,0 -8.1,44.6 13.9,44.6 8,0 16.1,-10.4 19.7,-15.7 v 0.1 c 0,0 0.2,-0.3 0.6,-1 0.8,-1.3 1.3,-2.1 1.3,-2.1 v -0.2 c 3.2,-5.6 10.4,-18.3 21.1,-39.4 13.8,-27.2 27.1,-61.2 27.1,-61.2 0,0 1.2,8.3 5.3,22.1 2.4,8.1 7.4,17 11.4,25.6 -3.2,4.5 -5.2,7 -5.2,7 l 0.1,0.1 c -2.6,3.4 -5.4,7.1 -8.5,10.7 -10.9,13 -23.9,27.9 -25.7,32.2 -2.1,5.1 -1.6,8.8 2.4,11.8 2.9,2.2 8.1,2.5 13.4,2.2 9.8,-0.7 16.7,-3.1 20.1,-4.6 5.3,-1.9 11.5,-4.8 17.3,-9.1 10.7,-7.9 17.2,-19.2 16.6,-34.1 -0.3,-8.2 -3,-16.4 -6.3,-24.1 1,-1.4 1.9,-2.8 2.9,-4.2 16.9,-24.7 30,-51.8 30,-51.8 0,0 1.2,8.3 5.3,22.1 2,7 6.1,14.6 9.7,22 -15.9,12.9 -25.7,27.9 -29.2,37.7 -6.3,18.2 -1.4,26.4 7.9,28.3 4.2,0.9 10.2,-1.1 14.6,-3 5.6,-1.8 12.2,-4.9 18.5,-9.5 10.7,-7.9 21,-18.9 20.4,-33.8 -0.3,-6.8 -2.1,-13.5 -4.6,-20 13.5,-5.6 30.9,-8.7 53.1,-6.1 47.6,5.6 57,35.3 55.2,47.8 -1.8,12.5 -11.8,19.3 -15.1,21.4 -3.3,2.1 -4.4,2.8 -4.1,4.3 0.4,2.2 2,2.1 4.8,1.7 3.9,-0.7 25,-10.1 25.9,-33.1 1.5,-29.4 -26.5,-61.5 -76,-61.2 z M 104.2,359.8 C 88.4,377 66.4,383.5 56.9,378 c -10.2,-5.9 -6.2,-31.3 13.2,-49.5 11.8,-11.1 27,-21.4 37.1,-27.7 2.3,-1.4 5.7,-3.4 9.8,-5.9 0.7,-0.4 1.1,-0.6 1.1,-0.6 0.8,-0.5 1.6,-1 2.4,-1.5 7.1,26 0.3,48.9 -16.3,67 z m 115,-78.2 c -5.5,13.4 -17,47.7 -24,45.8 -6,-1.6 -9.7,-27.6 -1.2,-53.3 4.3,-12.9 13.4,-28.3 18.7,-34.3 8.6,-9.6 18.1,-12.8 20.4,-8.9 2.9,5.1 -10.5,42.3 -13.9,50.7 z m 94.9,45.4 c -2.3,1.2 -4.5,2 -5.5,1.4 -0.7,-0.4 1,-2 1,-2 0,0 11.9,-12.8 16.6,-18.6 2.7,-3.4 5.9,-7.4 9.3,-11.9 v 1.3 c 0,15.3 -14.8,25.6 -21.4,29.8 z m 73.2,-16.7 c -1.7,-1.2 -1.4,-5.2 4.3,-17.7 2.2,-4.9 7.4,-13.1 16.3,-21 1,3.2 1.7,6.3 1.6,9.2 -0.1,19.3 -13.9,26.5 -22.2,29.5 z"
   style="fill:#ffffff;fill-rule:nonzero"
   id="path426" />
            </g>
</svg>
