<svg xmlns="http://www.w3.org/2000/svg" preserveAspectRatio="xMidYMid" viewBox="0 -204.5 25.684 32"><defs><path id="a" d="M3.176 94.358.004 9.835a5.148 5.148 0 0 1 4.823-5.331L76.72.01a5.148 5.148 0 0 1 5.47 5.139v92.103a5.148 5.148 0 0 1-5.38 5.143L8.09 99.308a5.148 5.148 0 0 1-4.914-4.95Z"/></defs><path fill="#fff" d="M24.14-204.499a1.818 1.818 0 0 0-.165.002l-1.766.11.128 3.693a.24.24 0 0 1-.388.197l-1.19-.937-1.408 1.068a.24.24 0 0 1-.385-.2l.15-3.627-17.607 1.1A1.609 1.609 0 0 0 0-201.427l.992 26.414c.031.837.699 1.51 1.535 1.547l21.475.964.072.002a1.61 1.61 0 0 0 1.61-1.609v-28.782a1.61 1.61 0 0 0-1.545-1.608zm-10.813 5.444c4.188 0 6.475 2.24 6.475 6.503-.566.44-4.782.74-4.782.113.089-2.388-.98-2.493-1.574-2.493-.565 0-1.515.17-1.515 1.45 0 3.157 8.138 2.986 8.138 9.355 0 3.583-2.91 5.562-6.623 5.562-3.832 0-7.18-1.55-6.802-6.925.148-.631 5.02-.481 5.02 0-.06 2.218.445 2.87 1.722 2.87.98 0 1.426-.54 1.426-1.45 0-3.241-8.02-3.355-8.02-9.298 0-3.412 2.347-5.687 6.535-5.687z"/></svg>