<svg xmlns="http://www.w3.org/2000/svg" fill="none" viewBox="0 0 512 512"><path fill="#fff" d="M50 0C22.3 0 0 22.3 0 50v412c0 27.7 22.3 50 50 50h412c27.7 0 50-22.3 50-50V50c0-27.7-22.3-50-50-50Zm354.111 238c11.685 0 22.042.703 31.067 2.111 9.025 1.408 17.347 3.573 24.963 6.493v46.777c-3.756-2.608-7.852-4.903-12.286-6.885a97.531 97.531 0 0 0-13.695-4.928 104.669 104.669 0 0 0-14.008-2.894c-4.643-.625-9.05-.938-13.222-.938-5.74 0-10.957.548-15.653 1.643-4.695 1.095-8.657 2.632-11.892 4.613-3.234 1.982-5.74 4.355-7.514 7.12-1.774 2.763-2.66 5.867-2.66 9.308 0 3.755.993 7.117 2.975 10.09 1.982 2.972 4.799 5.787 8.45 8.447 3.653 2.659 8.086 5.266 13.303 7.822 5.217 2.555 11.111 5.189 17.684 7.9 8.973 3.755 17.035 7.743 24.182 11.967 7.147 4.224 13.276 8.998 18.388 14.317 5.113 5.319 9.026 11.394 11.739 18.225 2.713 6.83 4.068 14.783 4.068 23.857 0 12.515-2.374 23.021-7.121 31.521s-11.19 15.385-19.328 20.65c-8.138 5.268-17.607 9.049-28.406 11.343-10.8 2.295-22.197 3.441-34.196 3.441-12.312 0-24.023-1.043-35.135-3.129-11.112-2.086-20.737-5.215-28.875-9.387v-50.06c9.077 7.614 18.937 13.325 29.579 17.13 10.643 3.808 21.389 5.71 32.24 5.71 6.365 0 11.92-.573 16.668-1.721 4.747-1.147 8.712-2.738 11.894-4.772 3.182-2.034 5.556-4.43 7.121-7.195 1.565-2.764 2.348-5.763 2.348-8.996 0-4.38-1.252-8.291-3.756-11.732-2.505-3.442-5.922-6.623-10.252-9.543-4.329-2.92-9.469-5.736-15.416-8.448-5.947-2.712-12.364-5.475-19.25-8.29-17.529-7.302-30.596-16.22-39.203-26.753C320.304 332.28 316 319.557 316 304.643c0-11.681 2.348-21.719 7.043-30.114 4.695-8.396 11.086-15.304 19.172-20.728 8.087-5.423 17.45-9.414 28.092-11.969 10.642-2.555 21.91-3.832 33.804-3.832ZM118 243h179v41.082h-64.22V467h-50.874V284.082H118Z"/></svg>