<?xml version="1.0" encoding="UTF-8" standalone="no"?>
<svg
   width="37.202374"
   height="37.689888"
   viewBox="0 0 37.202374 37.689888"
   version="1.1"
   xml:space="preserve"
   style="clip-rule:evenodd;fill-rule:evenodd;stroke-linejoin:round;stroke-miterlimit:2"
   id="svg449"
   sodipodi:docname="TYPO3_Logo_white.svg"
   inkscape:version="1.1.2 (b8e25be833, 2022-02-05)"
   xmlns:inkscape="http://www.inkscape.org/namespaces/inkscape"
   xmlns:sodipodi="http://sodipodi.sourceforge.net/DTD/sodipodi-0.dtd"
   xmlns="http://www.w3.org/2000/svg"
   xmlns:svg="http://www.w3.org/2000/svg"><defs
   id="defs453">
        
        
        
    </defs><sodipodi:namedview
   id="namedview451"
   pagecolor="#505050"
   bordercolor="#eeeeee"
   borderopacity="1"
   inkscape:pageshadow="0"
   inkscape:pageopacity="0"
   inkscape:pagecheckerboard="0"
   showgrid="false"
   fit-margin-top="0"
   fit-margin-left="0"
   fit-margin-right="0"
   fit-margin-bottom="0"
   inkscape:zoom="9.875"
   inkscape:cx="40.506329"
   inkscape:cy="6.1265823"
   inkscape:window-width="1920"
   inkscape:window-height="970"
   inkscape:window-x="0"
   inkscape:window-y="27"
   inkscape:window-maximized="1"
   inkscape:current-layer="svg449" />
    <g
   id="path5775"
   transform="matrix(0.372717,0,0,0.372717,76.589989,-100.77634)"
   style="fill:#ffffff">
            <path
   d="m -129.969,340.071 c -1.501,0.443 -2.697,0.595 -4.262,0.595 -12.84,0 -31.7,-44.87 -31.7,-59.804 0,-5.501 1.306,-7.335 3.142,-8.906 -15.717,1.833 -34.58,7.598 -40.607,14.933 -1.309,1.835 -2.095,4.716 -2.095,8.382 0,23.318 24.887,76.234 42.441,76.234 8.12,0 21.816,-13.36 33.081,-31.434"
   style="fill:#ffffff;fill-rule:nonzero"
   id="path442" />
        </g><g
   id="path5779"
   transform="matrix(0.372717,0,0,0.372717,76.589989,-100.77634)"
   style="fill:#ffffff">
            <path
   d="m -138.165,270.383 c 16.243,0 32.488,2.62 32.488,11.789 0,18.601 -11.789,41.131 -17.815,41.131 -10.74,0 -24.101,-29.864 -24.101,-44.798 0,-6.811 2.62,-8.122 9.428,-8.122"
   style="fill:#ffffff;fill-rule:nonzero"
   id="path445" />
        </g>
</svg>
