<?xml version="1.0" encoding="UTF-8" standalone="no"?>
<!DOCTYPE svg PUBLIC "-//W3C//DTD SVG 1.1//EN" "http://www.w3.org/Graphics/SVG/1.1/DTD/svg11.dtd">
<svg width="100%" height="100%" viewBox="0 0 136 40" version="1.1" xmlns="http://www.w3.org/2000/svg" xmlns:xlink="http://www.w3.org/1999/xlink" xml:space="preserve" xmlns:serif="http://www.serif.com/" style="fill-rule:evenodd;clip-rule:evenodd;stroke-linejoin:round;stroke-miterlimit:2;">
    <g id="layer1" transform="matrix(1,0,0,1,85.1406,-300.938)">
        <g id="path5771" transform="matrix(0.372717,0,0,0.372717,-8.29933,201.098)">
            <path d="M140.6,371.503C135.395,371.503 127.639,369.91 126.683,369.693L126.683,361.942C129.234,362.472 135.818,363.571 140.495,363.571C145.911,363.571 149.418,358.965 149.418,350.787C149.418,341.118 147.826,336.02 140.283,336.02L131.57,336.02L131.57,328.265L139.219,328.265C147.826,328.265 148.249,319.446 148.249,315.197C148.249,306.802 145.593,303.403 140.283,303.403C135.608,303.403 130.294,304.572 127.214,305.21L127.214,297.456C128.384,297.242 134.653,295.65 140.069,295.65C151.013,295.65 157.28,300.323 157.28,316.155C157.28,323.378 154.729,329.751 149.099,331.771C155.578,332.195 158.553,339.312 158.553,349.725C158.553,365.553 152.394,371.503 140.6,371.503M91.733,303.403C82.174,303.403 78.984,309.887 78.984,333.257C78.984,356.1 82.174,363.748 91.733,363.748C101.294,363.748 104.481,356.1 104.481,333.257C104.481,309.887 101.294,303.403 91.733,303.403M91.733,371.503C74.204,371.503 69.528,358.755 69.528,332.727C69.528,307.76 74.204,295.65 91.733,295.65C109.263,295.65 113.935,307.76 113.935,332.727C113.935,358.755 109.263,371.503 91.733,371.503M38.823,303.3C32.978,303.3 28.836,303.936 28.836,303.936L28.836,334.956L38.823,334.956C44.771,334.956 48.915,331.025 48.915,319.446C48.915,308.821 46.365,303.3 38.823,303.3M37.76,342.712L28.836,342.712L28.836,370.757L19.594,370.757L19.594,296.392C19.594,296.392 28.73,295.65 37.548,295.65C53.696,295.65 58.373,305.635 58.373,318.702C58.373,334.852 52.846,342.712 37.76,342.712M-10.257,336.232L-10.257,370.757L-19.819,370.757L-19.819,336.232L-38.834,296.392L-28.637,296.392L-14.614,326.457L-0.59,296.392L9.076,296.392L-10.257,336.232ZM-59.837,304.468L-59.837,370.757L-69.079,370.757L-69.079,304.468L-85.44,304.468L-85.44,296.392L-43.477,296.392L-43.477,304.468L-59.837,304.468Z" style="fill-rule:nonzero;"/>
        </g>
        <g id="path5775" transform="matrix(0.372717,0,0,0.372717,-8.29933,201.098)">
            <path d="M-129.969,340.071C-131.47,340.514 -132.666,340.666 -134.231,340.666C-147.071,340.666 -165.931,295.796 -165.931,280.862C-165.931,275.361 -164.625,273.527 -162.789,271.956C-178.506,273.789 -197.369,279.554 -203.396,286.889C-204.705,288.724 -205.491,291.605 -205.491,295.271C-205.491,318.589 -180.604,371.505 -163.05,371.505C-154.93,371.505 -141.234,358.145 -129.969,340.071" style="fill:rgb(255,135,0);fill-rule:nonzero;"/>
        </g>
        <g id="path5779" transform="matrix(0.372717,0,0,0.372717,-8.29933,201.098)">
            <path d="M-138.165,270.383C-121.922,270.383 -105.677,273.003 -105.677,282.172C-105.677,300.773 -117.466,323.303 -123.492,323.303C-134.232,323.303 -147.593,293.439 -147.593,278.505C-147.593,271.694 -144.973,270.383 -138.165,270.383" style="fill:rgb(255,135,0);fill-rule:nonzero;"/>
        </g>
    </g>
</svg>
