<svg xmlns="http://www.w3.org/2000/svg" xml:space="preserve" style="clip-rule:evenodd;fill-rule:evenodd;stroke-linejoin:round;stroke-miterlimit:2" viewBox="0 0 35.091 36.064"><path d="M28.002 35.994c-1.974-.396-3.313-2.296-3.007-4.267.283-1.816 1.905-3.198 3.756-3.198 1.959 0 3.724 1.765 3.724 3.724 0 2.352-2.206 4.196-4.473 3.741zm-8.665-3.85c-1.542-.134-3.34-.605-4.775-1.249-.384-.172-.403-.192-.324-.341.28-.531 2.703-4.753 2.77-4.825.063-.07.203-.046.676.118 1.016.352 1.678.458 2.886.46 1.2.002 1.838-.1 2.866-.456 3.042-1.054 5.32-3.82 5.76-6.992l.047-.336 2.197.039c1.208.021 2.524.057 2.924.079l.727.04-.047.468c-.297 2.94-1.614 5.918-3.617 8.173l-.274.308-.554-.214c-2.557-.984-5.476.18-6.623 2.64-.2.427-.365.997-.49 1.688-.033.184-.12.207-1.273.342-.815.096-2.136.122-2.876.058zm-7.714-3.033c-1.184-.9-2.656-2.545-3.466-3.872-.382-.625-.97-1.823-1.217-2.478l-.196-.519.238-.18c.878-.666 1.623-1.847 1.9-3.011.045-.192.081-.698.08-1.124-.005-1.454-.463-2.583-1.46-3.598-.31-.316-.642-.627-.739-.69l-.175-.116.24-.706c.273-.808 1.015-2.32 1.52-3.097a15.466 15.466 0 0 1 2.049-2.481c.646-.635 1.55-1.391 1.662-1.393.044 0 3.087 4.82 3.087 4.89 0 .016-.327.357-.726.757-1.307 1.312-2.067 2.745-2.422 4.567-.151.78-.152 2.367-.002 3.135a8.823 8.823 0 0 0 2.534 4.697l.556.541-1.43 2.541c-.786 1.398-1.446 2.54-1.467 2.54-.02-.001-.275-.182-.566-.403zm-8.75-7.525c-.675-.163-1.243-.497-1.787-1.049C.345 19.786 0 18.957 0 17.927c0-2.69 2.804-4.512 5.283-3.432.495.215 1.143.743 1.478 1.202 1.132 1.556.984 3.53-.368 4.883-.942.943-2.245 1.315-3.52 1.006zm26.361-4.989c0-.185-.258-1.294-.399-1.717-.428-1.282-1.097-2.355-2.101-3.371-1.683-1.704-3.76-2.569-6.164-2.569-1.054 0-1.901.137-2.853.463-.545.186-.722.221-.783.156-.043-.047-.642-1.084-1.33-2.304-.689-1.22-1.313-2.321-1.388-2.446l-.135-.226.48-.218c1.2-.547 2.736-.982 4.093-1.162 1.017-.134 2.945-.134 3.818.001.368.057.688.104.712.104.024.001.065.302.092.67.146 1.99 1.216 3.643 2.894 4.47.852.42 1.337.53 2.325.524 1.022-.005 1.509-.12 2.413-.57.359-.178.661-.311.672-.296.01.016.164.203.341.417 1.273 1.529 2.356 3.77 2.842 5.882.14.606.333 1.945.287 1.991-.018.019-.85.06-1.85.091s-2.3.076-2.891.098c-.591.022-1.075.028-1.075.012zM27.79 7.464c-1.962-.394-3.302-2.298-2.998-4.26.164-1.054.938-2.178 1.865-2.709.452-.258 1.333-.497 1.831-.495.993.003 1.907.388 2.642 1.11 1.19 1.173 1.469 2.84.728 4.371-.264.546-1.058 1.342-1.62 1.624-.76.383-1.667.516-2.448.36Z" style="fill:#fff;stroke-width:.0704442"/></svg>