<?xml version="1.0" encoding="UTF-8" standalone="no"?>
<!-- Created with Inkscape (http://www.inkscape.org/) -->

<svg
   width="40.230145"
   height="39.021935"
   viewBox="0 0 40.230146 39.021933"
   version="1.1"
   id="svg5"
   inkscape:version="1.2.1 (0f2f062aeb, 2022-09-21, custom)"
   sodipodi:docname="ux-research.svg"
   xml:space="preserve"
   xmlns:inkscape="http://www.inkscape.org/namespaces/inkscape"
   xmlns:sodipodi="http://sodipodi.sourceforge.net/DTD/sodipodi-0.dtd"
   xmlns="http://www.w3.org/2000/svg"
   xmlns:svg="http://www.w3.org/2000/svg"><sodipodi:namedview
     id="namedview7"
     pagecolor="#505050"
     bordercolor="#eeeeee"
     borderopacity="1"
     inkscape:pageshadow="0"
     inkscape:pageopacity="0"
     inkscape:pagecheckerboard="0"
     inkscape:document-units="px"
     showgrid="false"
     fit-margin-top="0"
     fit-margin-left="0"
     fit-margin-right="0"
     fit-margin-bottom="0"
     inkscape:zoom="16"
     inkscape:cx="20.3125"
     inkscape:cy="20"
     inkscape:window-width="1920"
     inkscape:window-height="1016"
     inkscape:window-x="0"
     inkscape:window-y="0"
     inkscape:window-maximized="1"
     inkscape:current-layer="layer1"
     inkscape:showpageshadow="0"
     inkscape:deskcolor="#505050" /><defs
     id="defs2" /><g
     inkscape:label="Ebene 1"
     inkscape:groupmode="layer"
     id="layer1"
     transform="translate(-528.02553,-332.10157)"><g
       aria-label="UX"
       id="text517"
       style="font-size:14.2539px;line-height:1.25;fill:#ffffff;stroke-width:0.356346"><path
         d="m 554.29497,341.56528 h -2.29488 l -0.92651,6.48553 c -0.17104,1.25434 -0.72694,1.89577 -1.79599,1.89577 -1.02628,0 -1.38263,-0.59867 -1.19732,-1.85301 l 0.91225,-6.52829 h -2.29488 l -0.92651,6.57105 c -0.28507,2.08107 0.78397,3.54922 3.33542,3.54922 2.52294,0 3.99109,-1.49666 4.26191,-3.50646 z"
         style="font-style:italic;font-weight:bold;font-family:'Fira Sans';-inkscape-font-specification:'Fira Sans Bold Italic'"
         id="path544" /><path
         d="m 562.90429,341.56528 h -2.46593 l -1.95278,3.24989 -0.92651,-3.24989 h -2.46592 l 1.86726,4.63252 -3.4637,5.24544 h 2.48018 l 2.16659,-3.84856 1.15457,3.84856 h 2.46592 l -2.06681,-5.31671 z"
         style="font-style:italic;font-weight:bold;font-family:'Fira Sans';-inkscape-font-specification:'Fira Sans Bold Italic'"
         id="path546" /></g><g
       aria-label="UX"
       id="text21328"
       style="font-size:20.3173px;line-height:1.25;stroke-width:0.507933" /><g
       aria-label="UI"
       id="text21332"
       style="font-size:20.3173px;line-height:1.25;stroke-width:0.507933" /><path
       style="fill:#ffffff;stroke-width:0.0780744"
       d="m 532.60815,371.00803 c -0.34979,-0.16647 -4.31269,-4.51153 -4.48005,-4.91208 -0.13744,-0.32894 -0.13674,-0.66647 0.002,-0.99868 0.077,-0.18419 1.74704,-1.75109 5.59356,-5.24798 3.01612,-2.74197 5.58187,-5.04888 5.70169,-5.12645 0.27485,-0.17797 0.90486,-0.18998 1.22699,-0.0234 0.31462,0.1627 4.23189,4.49208 4.40568,4.86917 0.18281,0.39667 0.17205,0.71457 -0.037,1.09277 -0.11868,0.21474 -1.91014,1.89273 -5.52374,5.1739 -2.94144,2.67084 -5.46373,4.94529 -5.60511,5.05431 -0.33589,0.25905 -0.88266,0.30948 -1.28409,0.11844 z m 19.84951,-10.80484 c -2.3822,-0.35908 -4.32945,-1.08735 -6.1264,-2.29126 -2.38058,-1.59494 -4.13069,-3.74355 -5.22446,-6.41409 -1.04168,-2.54333 -1.30408,-5.42015 -0.74314,-8.14707 0.74859,-3.63904 2.84489,-6.76858 5.91869,-8.83592 2.87267,-1.93205 6.29714,-2.74052 9.71203,-2.29287 6.65674,0.87261 11.75452,6.2808 12.22599,12.9704 0.37313,5.29437 -2.23394,10.34285 -6.74973,13.07052 -1.63474,0.98743 -3.36547,1.60043 -5.38253,1.90643 -0.7681,0.11652 -2.94719,0.13684 -3.63045,0.0338 z m 3.98179,-3.99776 c 1.87993,-0.44475 3.54908,-1.35501 4.87673,-2.65945 2.83735,-2.78775 3.84344,-6.94079 2.57598,-10.63337 -1.18354,-3.4481 -3.95636,-5.91181 -7.60886,-6.76063 -0.88193,-0.20495 -2.74858,-0.25785 -3.66948,-0.10399 -3.71509,0.62068 -6.73484,3.07142 -8.03463,6.52065 -0.47883,1.27067 -0.65358,2.23931 -0.65467,3.62902 -6.6e-4,0.91383 0.0371,1.35047 0.17199,1.98751 0.9102,4.29758 4.17003,7.42278 8.51731,8.16554 0.94684,0.16178 2.83005,0.0903 3.82563,-0.14528 z"
       id="path365" /></g></svg>
