<?xml version="1.0" encoding="UTF-8" standalone="no"?>
<!-- Created with Inkscape (http://www.inkscape.org/) -->

<svg
   width="68.066422"
   height="39.071793"
   viewBox="0 0 68.066424 39.071791"
   version="1.1"
   id="svg5"
   inkscape:version="1.2.1 (0f2f062aeb, 2022-09-21, custom)"
   sodipodi:docname="ux-ui-design.svg"
   xmlns:inkscape="http://www.inkscape.org/namespaces/inkscape"
   xmlns:sodipodi="http://sodipodi.sourceforge.net/DTD/sodipodi-0.dtd"
   xmlns="http://www.w3.org/2000/svg"
   xmlns:svg="http://www.w3.org/2000/svg">
  <sodipodi:namedview
     id="namedview7"
     pagecolor="#505050"
     bordercolor="#eeeeee"
     borderopacity="1"
     inkscape:pageshadow="0"
     inkscape:pageopacity="0"
     inkscape:pagecheckerboard="0"
     inkscape:document-units="px"
     showgrid="false"
     fit-margin-top="0"
     fit-margin-left="0"
     fit-margin-right="0"
     fit-margin-bottom="0"
     inkscape:zoom="5.6568543"
     inkscape:cx="44.90128"
     inkscape:cy="21.213203"
     inkscape:window-width="1920"
     inkscape:window-height="1016"
     inkscape:window-x="0"
     inkscape:window-y="0"
     inkscape:window-maximized="1"
     inkscape:current-layer="layer1"
     inkscape:showpageshadow="0"
     inkscape:deskcolor="#505050" />
  <defs
     id="defs2" />
  <g
     inkscape:label="Ebene 1"
     inkscape:groupmode="layer"
     id="layer1"
     transform="translate(-515.93963,-331.96719)">
    <path
       id="path21322"
       style="fill:#ffffff;stroke:none"
       d="m 535.47479,331.96719 c -10.7888,4.1e-4 -19.53475,8.74636 -19.53516,19.53516 -6.7e-4,10.78956 8.7456,19.5367 19.53516,19.53711 5.53136,-0.008 10.79989,-2.36125 14.49804,-6.47461 -3.23583,-3.58207 -5.03089,-8.23531 -5.03906,-13.0625 0.009,-4.83398 1.81003,-9.49294 5.05469,-13.07618 -3.7046,-4.11161 -8.97929,-6.45899 -14.51367,-6.45898 z m 14.51367,6.45898 c 3.23331,3.5879 5.02294,8.24634 5.02344,13.07618 -0.008,4.82719 -1.80324,9.48043 -5.03907,13.0625 3.69815,4.11336 8.96669,6.46621 14.49805,6.47461 10.78956,-4.1e-4 19.53583,-8.74755 19.53516,-19.53711 -4.1e-4,-10.7888 -8.74636,-19.53475 -19.53516,-19.53516 -5.52349,0.009 -10.78511,2.35545 -14.48242,6.45898 z m -29.08203,5.86524 h 3.27148 l -1.30078,9.30469 c -0.26413,1.78788 0.24419,2.64062 1.70703,2.64062 1.5238,0 2.31674,-0.91324 2.56055,-2.70117 l 1.32031,-9.24414 h 3.27148 l -1.32031,9.42578 c -0.38603,2.86474 -2.48,4.99805 -6.07617,4.99805 -3.63679,0 -5.16025,-2.09228 -4.75391,-5.0586 z m 11.96679,0 h 3.51563 l 1.32031,4.63086 2.7832,-4.63086 h 3.51563 l -4.57227,6.5 2.94727,7.57812 h -3.51563 l -1.64648,-5.48437 -3.08789,5.48437 h -3.53516 l 4.9375,-7.47656 z m 28.27344,0 h 3.26953 l -1.29883,9.30469 c -0.26413,1.7879 0.24223,2.64062 1.70508,2.64062 1.5238,0 2.31674,-0.91324 2.56055,-2.70117 l 1.32031,-9.24414 h 3.27148 l -1.32031,9.42578 c -0.38603,2.86474 -2.47805,4.99805 -6.07422,4.99805 -3.63677,0 -5.1622,-2.09228 -4.75586,-5.0586 z m 13.22656,0 h 3.26953 l -1.9707,14.07812 h -3.27149 z"
       sodipodi:nodetypes="cccccccccccccccccsccccsccccccccccccccccccsccccsccccccc" />
    <g
       aria-label="UX"
       id="text21328"
       style="font-size:20.3173px;line-height:1.25;stroke-width:0.507933" />
    <g
       aria-label="UI"
       id="text21332"
       style="font-size:20.3173px;line-height:1.25;stroke-width:0.507933" />
    <path
       id="path21464"
       style="fill:#ffffff;stroke:none;stroke-width:0.750097"
       d="m 549.97283,340.93612 c -2.25012,2.90076 -3.49556,6.66865 -3.49591,10.57352 0.006,3.88964 1.24741,7.63875 3.48504,10.53087 v 0.0301 c 0.003,-0.004 0.008,-0.01 0.0109,-0.0142 0.003,0.004 0.008,0.01 0.0109,0.0142 v -0.0301 c 2.23763,-2.89212 3.47949,-6.64123 3.48504,-10.53087 -3.5e-4,-3.90487 -1.24579,-7.67276 -3.49591,-10.57352 z" />
  </g>
</svg>
