<svg xmlns="http://www.w3.org/2000/svg" xml:space="preserve" baseProfile="tiny" overflow="visible" viewBox="0 0 45 43.9"><g fill="#FFF"><path d="M37 0H8C3.6 0 0 3.6 0 8v27.9c0 4.4 3.6 8 8 8h29c4.4 0 8-3.6 8-8V8c0-4.4-3.6-8-8-8zM24.1 30.9c0 .1-.1 0-.2 0h-4.3c-.3 0-.5 0-.6-.2-.4-.8-.8-1.6-1.2-2.3-.4-.8-.8-1.6-1.3-2.4-.5-.8-.9-1.6-1.4-2.4-.4.8-.8 1.6-1.3 2.4s-.9 1.6-1.3 2.4c-.4.8-.9 1.6-1.3 2.4 0 .1-.2.2-.4.2H6.7c-.1 0-.1 0-.1-.1v-.2l5.8-9.6-5.7-9.6c-.1-.1-.1-.2 0-.2 0-.1.1-.1.2-.1h4.6c.1 0 .1.1.2.2l1.2 2.4c.5.8.9 1.6 1.4 2.4.5.8.9 1.6 1.3 2.4l1.2-2.4c.4-.8.8-1.6 1.3-2.4.4-.8.8-1.6 1.3-2.4 0-.1.1-.1.1-.2.1 0 .1-.1.2 0h4c.1 0 .2 0 .2.1 0 0 0 .1-.1.1L18 20.8l6 9.8c.1.1.1.2.1.3zm14.2-.8c-1 .4-2 .7-3.1.9-1 .2-1.9.3-2.9.3-1.4 0-2.8-.3-4-.8-1.2-.5-2.2-1.4-2.8-2.5-.7-1.1-1-2.6-1-4.3 0-1.4.3-2.8 1-4 .7-1.2 1.7-2.2 3-2.9 1.3-.7 2.9-1.1 4.7-1.1h1V9.8c0-.1.1-.2.2-.2h3.8c.1 0 .2.1.2.1v19c0 .4.1.8.1 1.1 0 .2-.1.3-.2.3z"/><path d="M33 19.2c-.7 0-1.5.2-2.1.5-.6.3-1.2.8-1.6 1.4-.4.6-.6 1.4-.6 2.4 0 .7.1 1.3.3 1.9.2.5.5 1 .8 1.3.4.3.8.6 1.3.8.5.2 1 .2 1.6.2h.8c.2 0 .5 0 .7-.1v-8.2c-.2 0-.3-.1-.5-.1-.2-.1-.5-.1-.7-.1z"/></g></svg>