<?xml version="1.0" encoding="UTF-8" standalone="no"?>
<!-- Generator: Adobe Illustrator 24.1.0, SVG Export Plug-In . SVG Version: 6.00 Build 0)  -->

<svg
   version="1.1"
   id="Layer_1"
   x="0px"
   y="0px"
   viewBox="0 0 240 234"
   style="enable-background:new 0 0 240 234;"
   xml:space="preserve"
   sodipodi:docname="Adobe_XD_Logo_weiss.svg"
   inkscape:version="1.2.1 (0f2f062aeb, 2022-09-21, custom)"
   xmlns:inkscape="http://www.inkscape.org/namespaces/inkscape"
   xmlns:sodipodi="http://sodipodi.sourceforge.net/DTD/sodipodi-0.dtd"
   xmlns="http://www.w3.org/2000/svg"
   xmlns:svg="http://www.w3.org/2000/svg"><defs
   id="defs929">
	
	
</defs><sodipodi:namedview
   id="namedview927"
   pagecolor="#505050"
   bordercolor="#eeeeee"
   borderopacity="1"
   inkscape:showpageshadow="0"
   inkscape:pageopacity="0"
   inkscape:pagecheckerboard="0"
   inkscape:deskcolor="#505050"
   showgrid="false"
   inkscape:lockguides="false"
   inkscape:zoom="2.384219"
   inkscape:cx="108.00182"
   inkscape:cy="119.536"
   inkscape:window-width="1920"
   inkscape:window-height="1016"
   inkscape:window-x="0"
   inkscape:window-y="0"
   inkscape:window-maximized="1"
   inkscape:current-layer="Layer_1" />
<style
   type="text/css"
   id="style912">
	.st0{fill:#470137;}
	.st1{fill:#FF61F6;}
</style>
<path
   id="path914"
   style="enable-background:new 0 0 240 234;fill:#ffffff"
   class="st0"
   d="M 42.5 0 C 19.000047 0 0 19.000047 0 42.5 L 0 191.5 C 0 214.99996 19.000047 234 42.5 234 L 197.5 234 C 220.99996 234 240 214.99996 240 191.5 L 240 42.5 C 240 19.000047 220.99996 0 197.5 0 L 42.5 0 z M 183.19922 51.300781 L 203.5 51.300781 C 204 51.200781 204.4 51.6 204.5 52 L 204.5 52.199219 L 204.5 147.40039 C 204.5 149.20039 204.59922 151.20039 204.69922 153.40039 C 204.89922 155.50039 204.99961 157.49922 205.09961 159.19922 C 205.09961 159.89922 204.79961 160.50078 204.09961 160.80078 C 198.89961 163.00078 193.40078 164.59961 187.80078 165.59961 C 182.70079 166.49961 177.60039 167 172.40039 167 C 165.0004 167.1 157.60038 165.6 150.90039 162.5 C 144.6004 159.6 139.40078 154.80038 135.80078 148.90039 C 132.10078 142.8004 130.30078 135.1996 130.30078 126.09961 C 130.20078 118.69962 132.10078 111.39999 135.80078 105 C 139.60078 98.500006 145.09923 93.099996 151.69922 89.5 C 158.69921 85.600004 167.10001 83.699219 177 83.699219 C 177.5 83.699219 178.19961 83.700781 179.09961 83.800781 C 179.99961 83.900781 180.99922 83.9 182.19922 84 L 182.19922 52.400391 C 182.19922 51.700391 182.49922 51.300781 183.19922 51.300781 z M 36.800781 60 L 59.5 60 C 60 60 60.500391 60.099219 60.900391 60.199219 C 61.300389 60.399219 61.600391 60.699611 61.900391 61.099609 C 63.800387 65.399601 66.000787 69.700008 68.300781 74 C 70.700777 78.299992 73.000004 82.499227 75.5 86.699219 C 77.899996 90.899211 80.099223 95.100399 82.199219 99.400391 L 82.400391 99.400391 C 84.500387 95.000399 86.700395 90.699992 88.900391 86.5 C 91.100385 82.300008 93.399223 78.100381 95.699219 73.900391 C 97.999213 69.700399 100.20039 65.400773 102.40039 61.300781 C 102.50039 60.900783 102.7 60.500781 103 60.300781 C 103.4 60.100781 103.80078 59.999609 104.30078 60.099609 L 125.40039 60.099609 C 125.90039 59.999609 126.4 60.300783 126.5 60.800781 C 126.6 60.900781 126.39922 61.3 126.19922 61.5 L 96.199219 111 L 128.19922 163.5 C 128.39922 163.9 128.50039 164.29922 128.40039 164.69922 C 128.30039 165.09922 127.90078 164.80039 127.30078 164.90039 L 104.40039 164.90039 C 102.80039 164.90039 101.7 164.80078 101 163.80078 C 98.900004 159.6008 96.699605 155.50078 94.599609 151.30078 C 92.499613 147.2008 90.200777 142.9992 87.800781 138.69922 C 85.400787 134.39922 82.999605 130.0992 80.599609 125.69922 L 80.400391 125.69922 C 78.300395 129.9992 75.999213 134.29961 73.699219 138.59961 C 71.399223 142.89961 69.100385 147.20039 66.900391 151.40039 C 64.600395 155.60039 62.299996 159.9 60 164 C 59.6 165 58.799217 165.09961 57.699219 165.09961 L 35.699219 165.09961 C 35.299219 165.09961 35 165.30078 35 164.80078 C 34.9 164.40078 34.999219 163.99922 35.199219 163.69922 L 66.300781 112.69922 L 36 61.400391 C 35.7 61.000391 35.600781 60.600389 35.800781 60.400391 C 36.000781 60.100391 36.400783 60 36.800781 60 z M 176.19922 102.30078 C 172.29922 102.30078 168.40039 103.10039 164.90039 104.90039 C 161.50039 106.60039 158.60039 109.10078 156.40039 112.30078 C 154.20039 115.50078 153.09961 119.80001 153.09961 125 C 152.99961 128.5 153.60078 132.00078 154.80078 135.30078 C 155.80078 138.00078 157.30078 140.40039 159.30078 142.40039 C 161.20078 144.20039 163.49961 145.60039 166.09961 146.40039 C 168.79961 147.30039 171.60039 147.69922 174.40039 147.69922 C 175.90039 147.69922 177.29961 147.6 178.59961 147.5 C 179.89961 147.6 180.99922 147.4 182.19922 147 L 182.19922 103 C 181.29922 102.8 180.4 102.6 179.5 102.5 C 178.4 102.4 177.29922 102.30078 176.19922 102.30078 z " />
</svg>
