<?xml version="1.0" encoding="UTF-8" standalone="no"?>
<!-- Created with Inkscape (http://www.inkscape.org/) -->

<svg
   width="51.399006"
   height="40.021835"
   viewBox="0 0 51.399007 40.021835"
   version="1.1"
   id="svg5"
   inkscape:version="1.2.1 (0f2f062aeb, 2022-09-21, custom)"
   sodipodi:docname="DDEV-Logo_quad_white.svg"
   xmlns:inkscape="http://www.inkscape.org/namespaces/inkscape"
   xmlns:sodipodi="http://sodipodi.sourceforge.net/DTD/sodipodi-0.dtd"
   xmlns="http://www.w3.org/2000/svg"
   xmlns:svg="http://www.w3.org/2000/svg">
  <sodipodi:namedview
     id="namedview7"
     pagecolor="#505050"
     bordercolor="#eeeeee"
     borderopacity="1"
     inkscape:pageshadow="0"
     inkscape:pageopacity="0"
     inkscape:pagecheckerboard="0"
     inkscape:document-units="px"
     showgrid="false"
     fit-margin-top="0"
     fit-margin-left="0"
     fit-margin-right="0"
     fit-margin-bottom="0"
     inkscape:zoom="5.6568544"
     inkscape:cx="32.173358"
     inkscape:cy="22.804193"
     inkscape:window-width="1920"
     inkscape:window-height="1016"
     inkscape:window-x="0"
     inkscape:window-y="0"
     inkscape:window-maximized="1"
     inkscape:current-layer="layer1"
     inkscape:showpageshadow="0"
     inkscape:deskcolor="#505050" />
  <defs
     id="defs2" />
  <g
     inkscape:label="Ebene 1"
     inkscape:groupmode="layer"
     id="layer1"
     transform="translate(-532.60705,-331.36366)">
    <path
       style="fill:#ffffff;stroke-width:0.145455"
       d="m 555.6602,371.37391 c -0.50879,0.0421 -0.81385,-0.026 -1.25414,-0.27988 -0.3239,-0.1868 -0.69456,-0.56026 -0.83614,-0.84245 -0.13988,-0.27879 -0.25442,-0.80813 -0.25455,-1.1763 -1.4e-4,-0.45503 0.10458,-0.82339 0.32705,-1.15026 0.18,-0.26447 0.50702,-0.61401 0.7267,-0.77675 0.27433,-0.20323 0.62328,-0.2959 1.11421,-0.2959 0.53255,0 0.86566,0.0998 1.30655,0.39161 l 0.59176,0.39161 h 7.33765 7.33766 l 3.77082,-3.81818 c 2.07396,-2.1 4.10796,-4.19524 4.52001,-4.65609 l 0.74919,-0.8379 v -6.99093 -6.99094 l -1.18849,-1.26207 c -0.65366,-0.69414 -2.66318,-2.75116 -4.46558,-4.57116 l -3.27711,-3.30909 h -8.3403 -8.3403 l -0.44266,0.32727 c -0.32912,0.24332 -0.64201,0.32727 -1.21981,0.32727 -0.55806,0 -0.89039,-0.0845 -1.17883,-0.29989 -0.22092,-0.16495 -0.52746,-0.46838 -0.6812,-0.6743 -0.15374,-0.20592 -0.31253,-0.66715 -0.35286,-1.02496 -0.0503,-0.44674 0.007,-0.8191 0.18192,-1.18847 0.14038,-0.29584 0.48144,-0.71042 0.75791,-0.92129 0.37832,-0.28856 0.67008,-0.38285 1.17953,-0.38118 0.45283,0.001 0.9172,0.1311 1.40298,0.39161 l 0.72612,0.38939 h 8.76128 8.76129 l 3.75301,3.81818 c 2.06416,2.1 4.45483,4.54733 5.3126,5.43851 l 1.55959,1.62032 v 8.27869 8.27869 l -0.32728,0.44271 c -0.18,0.24349 -2.58598,2.74348 -5.34663,5.55553 l -5.01936,5.11283 h -8.0491 c -8.01361,0 -8.05103,0.001 -8.49013,0.31404 -0.24811,0.17667 -0.73513,0.3384 -1.11336,0.36973 z m -0.18851,-1.41105 c 0.2013,0 0.4857,-0.10832 0.632,-0.24072 0.1463,-0.1324 0.266,-0.42323 0.266,-0.6463 0,-0.25422 -0.12064,-0.49007 -0.32327,-0.632 -0.1778,-0.12454 -0.43962,-0.22643 -0.58182,-0.22643 -0.1422,0 -0.38945,0.13091 -0.54945,0.29091 -0.16,0.16 -0.29091,0.43303 -0.29091,0.60673 0,0.1737 0.10832,0.43551 0.24072,0.58181 0.1324,0.1463 0.40543,0.266 0.60673,0.266 z m -1.67425,-35.49533 c 0.14526,0.002 0.39071,-0.0633 0.54545,-0.14615 0.19331,-0.10345 0.28135,-0.30503 0.28135,-0.64415 0,-0.27148 -0.10286,-0.59645 -0.22857,-0.72216 -0.12572,-0.12571 -0.38286,-0.22857 -0.57143,-0.22857 -0.18857,0 -0.44572,0.10286 -0.57143,0.22857 -0.12572,0.12571 -0.22857,0.44974 -0.22857,0.72005 0,0.31462 0.0916,0.54482 0.25454,0.63973 0.14,0.0815 0.3734,0.15025 0.51866,0.15268 z m -5.71866,31.06293 c -0.12,0.0295 -0.46797,-0.0349 -0.77326,-0.14317 -0.3053,-0.10822 -0.68836,-0.31738 -0.85126,-0.4648 -0.16289,-0.14742 -0.38765,-0.44493 -0.49946,-0.66115 -0.11181,-0.21622 -0.20329,-0.71397 -0.20329,-1.10611 0,-0.50036 0.0976,-0.85597 0.32727,-1.19244 0.18,-0.2637 0.55637,-0.60468 0.83637,-0.75773 0.36725,-0.20075 0.70418,-0.26122 1.20933,-0.21706 0.40598,0.0355 0.87722,0.19207 1.12138,0.37259 0.42084,0.31114 0.42839,0.31136 10.50796,0.31136 h 10.08682 l 2.71907,-2.8321 2.71907,-2.8321 v -4.68667 -4.68668 l -2.79509,-2.8085 -2.79509,-2.80849 h -9.78799 -9.78798 l -0.60238,0.43636 c -0.48555,0.35173 -0.74915,0.43637 -1.35905,0.43637 -0.54454,0 -0.89523,-0.0926 -1.25091,-0.33018 -0.27183,-0.18159 -0.60868,-0.55796 -0.74855,-0.83636 -0.13988,-0.27841 -0.25442,-0.75812 -0.25455,-1.06603 -1.2e-4,-0.30791 0.10603,-0.78374 0.23589,-1.05741 0.12986,-0.27366 0.43039,-0.63591 0.66783,-0.80498 0.23744,-0.16908 0.71047,-0.33883 1.05116,-0.37723 0.43576,-0.0491 0.82549,0.0213 1.31429,0.23755 0.68641,0.30363 0.82293,0.30736 11.23461,0.30736 h 10.53976 l 0.76658,0.76364 c 0.42163,0.42 2.05223,2.08061 3.62358,3.69024 l 2.85699,2.92661 -4.4e-4,6.01885 -4.4e-4,6.01884 -3.57527,3.67273 -3.57528,3.67273 h -10.62001 c -10.13678,0 -10.63757,0.0124 -11.00609,0.27182 -0.21235,0.14951 -0.54973,0.31834 -0.74973,0.37518 -0.2,0.0568 -0.46182,0.12747 -0.58182,0.15696 z m -0.17782,-1.38578 c 0.1422,0 0.40402,-0.10189 0.58182,-0.22643 0.20646,-0.14461 0.32328,-0.37738 0.32328,-0.64416 0,-0.22974 -0.10286,-0.52058 -0.22858,-0.64629 -0.12571,-0.12572 -0.39874,-0.22857 -0.60672,-0.22857 -0.20799,0 -0.49786,0.10832 -0.64416,0.24072 -0.1463,0.1324 -0.266,0.39422 -0.266,0.58182 0,0.1876 0.13091,0.472 0.29091,0.632 0.16,0.16 0.40725,0.29091 0.54945,0.29091 z m 0.15602,-23.56364 c 0.13639,0 0.39346,-0.10189 0.57126,-0.22642 0.188,-0.13169 0.32327,-0.37915 0.32327,-0.59139 0,-0.20072 -0.0678,-0.49155 -0.15057,-0.64629 -0.10365,-0.19367 -0.30506,-0.28135 -0.6463,-0.28135 -0.34738,0 -0.56348,0.0967 -0.72215,0.32327 -0.12454,0.1778 -0.22643,0.39807 -0.22643,0.48948 0,0.0914 0.13566,0.33866 0.30146,0.54945 0.16581,0.21079 0.41306,0.38325 0.54946,0.38325 z m -7.68168,18.9059 c -0.20308,-0.002 -0.64607,-0.12886 -0.98442,-0.28245 -0.35508,-0.16119 -0.73927,-0.4827 -0.90867,-0.76044 -0.16142,-0.26465 -0.33289,-0.68965 -0.38105,-0.94443 -0.0482,-0.25479 -0.0119,-0.69252 0.0806,-0.97273 0.0925,-0.28022 0.29603,-0.67207 0.45233,-0.87078 0.15631,-0.19871 0.57521,-0.47243 0.9309,-0.60827 0.41964,-0.16026 0.82228,-0.21404 1.14675,-0.15317 0.27502,0.0516 0.74503,0.2885 1.04446,0.52645 l 0.54441,0.43265 h 3.25273 c 2.53367,0 3.25273,-0.0409 3.25273,-0.18485 0,-0.10167 -0.59037,-0.77258 -1.31193,-1.49091 l -1.31193,-1.30606 -4.58803,-0.0441 -4.58804,-0.0441 -0.94773,0.4617 c -0.73824,0.35964 -1.07232,0.44499 -1.5114,0.38609 -0.31003,-0.0416 -0.7641,-0.21831 -1.00906,-0.39273 -0.24495,-0.17442 -0.55407,-0.5247 -0.68693,-0.77839 -0.13286,-0.2537 -0.24264,-0.75713 -0.24396,-1.11874 -0.001,-0.39312 0.1112,-0.85042 0.28012,-1.13732 0.15539,-0.26391 0.50698,-0.61882 0.78131,-0.78868 0.32497,-0.20121 0.73904,-0.30883 1.18819,-0.30883 0.51158,0 0.83513,0.101 1.25448,0.39161 l 0.56509,0.39161 h 5.40571 5.40571 l 2.936,2.98181 2.936,2.98182 h 6.98537 6.98537 l 1.0651,-1.0651 1.0651,-1.0651 v -2.32786 -2.32785 l -1.14857,-1.11773 -1.14856,-1.11772 -6.14843,0.0379 c -4.61792,0.0285 -6.16288,0.0813 -6.20648,0.21217 -0.0319,0.0958 0.519,0.76677 1.22427,1.491 l 1.28232,1.31677 2.81342,-8e-5 c 2.59151,-8e-5 2.84254,-0.023 3.18262,-0.2905 0.20307,-0.15973 0.62248,-0.35862 0.93204,-0.44197 0.386,-0.10394 0.73637,-0.10482 1.11521,-0.003 0.30381,0.0818 0.7251,0.32979 0.9362,0.55106 0.2111,0.22128 0.45344,0.58658 0.53853,0.81179 0.0851,0.22521 0.1547,0.65735 0.1547,0.96031 0,0.33179 -0.13014,0.74206 -0.32727,1.0317 -0.18,0.26448 -0.51207,0.61779 -0.73794,0.78515 -0.29628,0.21953 -0.62712,0.30428 -1.18781,0.30428 -0.60268,0 -0.88601,-0.0816 -1.26206,-0.36363 -0.48233,-0.3617 -0.50356,-0.36383 -3.97582,-0.39857 l -3.49091,-0.0349 -2.86261,-2.94689 -2.86261,-2.94689 h -3.8283 -3.8283 l -0.48492,0.36364 c -0.37605,0.282 -0.65938,0.36364 -1.26206,0.36364 -0.55806,0 -0.89038,-0.0845 -1.17882,-0.2999 -0.22093,-0.16494 -0.52941,-0.47098 -0.68553,-0.68007 -0.15611,-0.2091 -0.31105,-0.69597 -0.34431,-1.08193 -0.0421,-0.48914 0.0191,-0.8551 0.20213,-1.20793 0.14443,-0.27841 0.48264,-0.65318 0.75158,-0.83282 0.26894,-0.17965 0.7101,-0.36812 0.98035,-0.41881 0.37896,-0.0711 0.70587,0.0113 1.42912,0.36009 l 0.93776,0.45227 h 12.86396 12.86396 l 1.82623,1.88493 1.82623,1.88493 0.049,3.38779 c 0.0338,2.34065 -0.003,3.52268 -0.12047,3.82417 -0.0932,0.24 -0.94533,1.20423 -1.89363,2.14274 l -1.7242,1.70637 -13.38182,0.0391 -13.38182,0.0391 -0.5762,0.32727 c -0.31692,0.18 -0.74237,0.32584 -0.94546,0.32408 z m 0.0552,-1.48066 c 0.30209,-0.0299 0.50881,-0.16832 0.66198,-0.44342 0.19999,-0.35918 0.19999,-0.44081 -5e-5,-0.8 -0.14457,-0.25957 -0.36611,-0.41659 -0.63105,-0.44726 -0.24005,-0.0278 -0.52284,0.0564 -0.68632,0.20436 -0.15292,0.13839 -0.27805,0.41633 -0.27805,0.61763 0,0.2013 0.11121,0.48888 0.24712,0.63906 0.16151,0.17846 0.39928,0.25801 0.68637,0.22963 z m -5.57373,-5.78887 c 0.25421,0 0.49007,-0.12064 0.632,-0.32328 0.12453,-0.1778 0.22643,-0.43961 0.22643,-0.58181 0,-0.1422 -0.13091,-0.38946 -0.29091,-0.54946 -0.16,-0.16 -0.43303,-0.29091 -0.60673,-0.29091 -0.1737,0 -0.43552,0.10833 -0.58182,0.24073 -0.1463,0.1324 -0.266,0.40543 -0.266,0.60673 0,0.2013 0.10833,0.4857 0.24073,0.632 0.1324,0.1463 0.42323,0.266 0.6463,0.266 z m 29.95148,0 c 0.26677,0 0.49955,-0.11682 0.64415,-0.32328 0.12454,-0.1778 0.22643,-0.43961 0.22643,-0.58181 0,-0.1422 -0.13091,-0.38946 -0.29091,-0.54946 -0.16,-0.16 -0.43302,-0.29091 -0.60672,-0.29091 -0.1737,0 -0.43552,0.10833 -0.58182,0.24073 -0.1463,0.1324 -0.266,0.42227 -0.266,0.64416 0,0.22188 0.10286,0.50628 0.22857,0.632 0.12571,0.12571 0.41655,0.22857 0.6463,0.22857 z m -23.92942,-5.96364 c 0.16942,0 0.41212,-0.0818 0.53933,-0.18182 0.12722,-0.1 0.27178,-0.3188 0.32126,-0.48623 0.0579,-0.19607 -0.0182,-0.44198 -0.21405,-0.69091 -0.17531,-0.22287 -0.44902,-0.38649 -0.64654,-0.38649 -0.19751,0 -0.47123,0.16362 -0.64653,0.38649 -0.19581,0.24893 -0.272,0.49484 -0.21405,0.69091 0.0495,0.16743 0.19404,0.38623 0.32125,0.48623 0.12722,0.1 0.36991,0.18182 0.53933,0.18182 z"
       id="path6203"
       sodipodi:nodetypes="ccscsssccccsccccccccccscsccccccccsccccsscsccsssssssssccscscsccscsssscccscccccccccsscccccccsccccccccsccssssscsssssscscscscscsscscscccsssccccccccccssccccccccccccccccccsccscsssscccccccssccccccccccccccccccccccscccsscsssssssssscsssssssscccscccs" />
  </g>
</svg>
